<?xml version="1.0" encoding="UTF-8" standalone="no"?>
<!-- Created with Inkscape (http://www.inkscape.org/) -->

<svg
   width="400"
   height="720"
   viewBox="0 0 105.8 190.5"
   version="1.1"
   id="svg5"
   sodipodi:docname="aboutme-pic.svg"
   inkscape:version="1.1.2 (08b2f3d93c, 2022-04-05)"
   xmlns:inkscape="http://www.inkscape.org/namespaces/inkscape"
   xmlns:sodipodi="http://sodipodi.sourceforge.net/DTD/sodipodi-0.dtd"
   xmlns:xlink="http://www.w3.org/1999/xlink"
   xmlns="http://www.w3.org/2000/svg"
   xmlns:svg="http://www.w3.org/2000/svg">
  <sodipodi:namedview
     id="namedview7"
     pagecolor="#ffffff"
     bordercolor="#111111"
     borderopacity="1"
     inkscape:pageshadow="0"
     inkscape:pageopacity="0"
     inkscape:pagecheckerboard="1"
     inkscape:document-units="mm"
     showgrid="false"
     units="px"
     width="720px"
     scale-x="1"
     inkscape:zoom="0.6647"
     inkscape:cx="259.5"
     inkscape:cy="390.4"
     inkscape:window-width="1920"
     inkscape:window-height="1052"
     inkscape:window-x="0"
     inkscape:window-y="0"
     inkscape:window-maximized="1"
     inkscape:current-layer="layer18"
     inkscape:snap-global="false"
     inkscape:snap-bbox="false"
     borderlayer="true" />
  <defs
     id="defs2">
    <inkscape:path-effect
       effect="powermask"
       id="path-effect16055"
       is_visible="true"
       lpeversion="0"
       uri="#mask-powermask-path-effect16055"
       invert="false"
       hide_mask="false"
       background="false"
       background_color="#ffffffff" />
    <linearGradient
       inkscape:collect="always"
       id="linearGradient12094">
      <stop
         style="stop-color:#cfcfcf;stop-opacity:1"
         offset="0"
         id="stop12090" />
      <stop
         style="stop-color:#000003;stop-opacity:0.9999"
         offset="1"
         id="stop12092" />
    </linearGradient>
    <inkscape:path-effect
       effect="powerstroke"
       id="path-effect45680"
       is_visible="true"
       lpeversion="1"
       offset_points="0.9481,0.6934 | 5.184,0.9594"
       not_jump="true"
       sort_points="true"
       interpolator_type="CentripetalCatmullRom"
       interpolator_beta="0.75"
       start_linecap_type="round"
       linejoin_type="spiro"
       miter_limit="4"
       scale_width="1"
       end_linecap_type="round" />
    <inkscape:path-effect
       effect="simplify"
       id="path-effect45678"
       is_visible="true"
       lpeversion="1"
       steps="1"
       threshold="0.005812"
       smooth_angles="0"
       helper_size="0"
       simplify_individual_paths="false"
       simplify_just_coalesce="false"
       step="1" />
    <inkscape:path-effect
       effect="powerstroke"
       id="path-effect45673"
       is_visible="true"
       lpeversion="1"
       offset_points="0.4384,0.708"
       not_jump="true"
       sort_points="true"
       interpolator_type="CentripetalCatmullRom"
       interpolator_beta="0.75"
       start_linecap_type="round"
       linejoin_type="spiro"
       miter_limit="4"
       scale_width="1"
       end_linecap_type="round" />
    <inkscape:path-effect
       effect="simplify"
       id="path-effect45671"
       is_visible="true"
       lpeversion="1"
       steps="1"
       threshold="0.005812"
       smooth_angles="0"
       helper_size="0"
       simplify_individual_paths="false"
       simplify_just_coalesce="false"
       step="1" />
    <inkscape:path-effect
       effect="powerstroke"
       id="path-effect45666"
       is_visible="true"
       lpeversion="1"
       offset_points="0.7178,0.788"
       not_jump="true"
       sort_points="true"
       interpolator_type="CentripetalCatmullRom"
       interpolator_beta="0.75"
       start_linecap_type="round"
       linejoin_type="spiro"
       miter_limit="4"
       scale_width="1"
       end_linecap_type="round" />
    <inkscape:path-effect
       effect="simplify"
       id="path-effect45664"
       is_visible="true"
       lpeversion="1"
       steps="1"
       threshold="0.005812"
       smooth_angles="0"
       helper_size="0"
       simplify_individual_paths="false"
       simplify_just_coalesce="false"
       step="1" />
    <inkscape:path-effect
       effect="powerstroke"
       id="path-effect34726"
       is_visible="true"
       lpeversion="1"
       offset_points="0.9837,0.3591 | 4.272,0.5157"
       not_jump="true"
       sort_points="true"
       interpolator_type="CentripetalCatmullRom"
       interpolator_beta="0.75"
       start_linecap_type="round"
       linejoin_type="spiro"
       miter_limit="4"
       scale_width="1"
       end_linecap_type="round" />
    <inkscape:path-effect
       effect="simplify"
       id="path-effect34724"
       is_visible="true"
       lpeversion="1"
       steps="1"
       threshold="0.005812"
       smooth_angles="0"
       helper_size="0"
       simplify_individual_paths="false"
       simplify_just_coalesce="false"
       step="1" />
    <inkscape:path-effect
       effect="powerstroke"
       id="path-effect34686"
       is_visible="true"
       lpeversion="1"
       offset_points="0.9208,0.9165 | 1.126,0.7411 | 7.818,1.161"
       not_jump="true"
       sort_points="true"
       interpolator_type="CentripetalCatmullRom"
       interpolator_beta="0.75"
       start_linecap_type="round"
       linejoin_type="spiro"
       miter_limit="4"
       scale_width="1"
       end_linecap_type="round" />
    <inkscape:path-effect
       effect="simplify"
       id="path-effect34684"
       is_visible="true"
       lpeversion="1"
       steps="1"
       threshold="0.005812"
       smooth_angles="0"
       helper_size="0"
       simplify_individual_paths="false"
       simplify_just_coalesce="false"
       step="1" />
    <inkscape:path-effect
       effect="powerstroke"
       id="path-effect28555"
       is_visible="true"
       lpeversion="1"
       offset_points="0.6186,0.2302 | 0.8622,0.2052 | 1.705,0.2505 | 4.443,1.177 | 5.39,0.5657"
       not_jump="true"
       sort_points="true"
       interpolator_type="CentripetalCatmullRom"
       interpolator_beta="0.75"
       start_linecap_type="peak"
       linejoin_type="spiro"
       miter_limit="4"
       scale_width="1"
       end_linecap_type="peak" />
    <inkscape:path-effect
       effect="simplify"
       id="path-effect28553"
       is_visible="true"
       lpeversion="1"
       steps="1"
       threshold="0.005812"
       smooth_angles="0"
       helper_size="0"
       simplify_individual_paths="false"
       simplify_just_coalesce="false"
       step="1" />
    <inkscape:path-effect
       effect="powerstroke"
       id="path-effect28548"
       is_visible="true"
       lpeversion="1"
       offset_points="0.6587,0.1889"
       not_jump="true"
       sort_points="true"
       interpolator_type="CentripetalCatmullRom"
       interpolator_beta="0.75"
       start_linecap_type="peak"
       linejoin_type="spiro"
       miter_limit="4"
       scale_width="1"
       end_linecap_type="peak" />
    <inkscape:path-effect
       effect="simplify"
       id="path-effect28546"
       is_visible="true"
       lpeversion="1"
       steps="1"
       threshold="0.005812"
       smooth_angles="0"
       helper_size="0"
       simplify_individual_paths="false"
       simplify_just_coalesce="false"
       step="1" />
    <inkscape:path-effect
       effect="powerstroke"
       id="path-effect28541"
       is_visible="true"
       lpeversion="1"
       offset_points="0.7327,0.4972 | 5.352,1.231"
       not_jump="true"
       sort_points="true"
       interpolator_type="CentripetalCatmullRom"
       interpolator_beta="0.75"
       start_linecap_type="peak"
       linejoin_type="spiro"
       miter_limit="4"
       scale_width="1"
       end_linecap_type="peak" />
    <inkscape:path-effect
       effect="simplify"
       id="path-effect28539"
       is_visible="true"
       lpeversion="1"
       steps="1"
       threshold="0.005812"
       smooth_angles="0"
       helper_size="0"
       simplify_individual_paths="false"
       simplify_just_coalesce="false"
       step="1" />
    <inkscape:path-effect
       effect="powerstroke"
       id="path-effect28534"
       is_visible="true"
       lpeversion="1"
       offset_points="0.4199,0.7422 | 3.014,1.036"
       not_jump="true"
       sort_points="true"
       interpolator_type="CentripetalCatmullRom"
       interpolator_beta="0.75"
       start_linecap_type="peak"
       linejoin_type="spiro"
       miter_limit="4"
       scale_width="1"
       end_linecap_type="peak" />
    <inkscape:path-effect
       effect="simplify"
       id="path-effect28532"
       is_visible="true"
       lpeversion="1"
       steps="1"
       threshold="0.005812"
       smooth_angles="0"
       helper_size="0"
       simplify_individual_paths="false"
       simplify_just_coalesce="false"
       step="1" />
    <inkscape:path-effect
       effect="powerstroke"
       id="path-effect28527"
       is_visible="true"
       lpeversion="1"
       offset_points="0.5104,0.7626 | 4.251,0.9279"
       not_jump="true"
       sort_points="true"
       interpolator_type="CentripetalCatmullRom"
       interpolator_beta="0.75"
       start_linecap_type="peak"
       linejoin_type="spiro"
       miter_limit="4"
       scale_width="1"
       end_linecap_type="peak" />
    <inkscape:path-effect
       effect="simplify"
       id="path-effect28525"
       is_visible="true"
       lpeversion="1"
       steps="1"
       threshold="0.00259259"
       smooth_angles="0"
       helper_size="0"
       simplify_individual_paths="false"
       simplify_just_coalesce="false"
       step="1" />
    <inkscape:path-effect
       effect="powerstroke"
       id="path-effect28520"
       is_visible="true"
       lpeversion="1"
       offset_points="0.752,0.3232 | 4.477,0.9902"
       not_jump="true"
       sort_points="true"
       interpolator_type="CentripetalCatmullRom"
       interpolator_beta="0.75"
       start_linecap_type="peak"
       linejoin_type="spiro"
       miter_limit="4"
       scale_width="1"
       end_linecap_type="peak" />
    <inkscape:path-effect
       effect="simplify"
       id="path-effect28518"
       is_visible="true"
       lpeversion="1"
       steps="1"
       threshold="0.003331"
       smooth_angles="0"
       helper_size="0"
       simplify_individual_paths="false"
       simplify_just_coalesce="false"
       step="1" />
    <inkscape:path-effect
       effect="powerstroke"
       id="path-effect28513"
       is_visible="true"
       lpeversion="1"
       offset_points="1.087,0.7875 | 6.938,0.9496"
       not_jump="true"
       sort_points="true"
       interpolator_type="CentripetalCatmullRom"
       interpolator_beta="0.75"
       start_linecap_type="butt"
       linejoin_type="spiro"
       miter_limit="4"
       scale_width="1"
       end_linecap_type="butt" />
    <inkscape:path-effect
       effect="simplify"
       id="path-effect28511"
       is_visible="true"
       lpeversion="1"
       steps="1"
       threshold="0.003331"
       smooth_angles="0"
       helper_size="0"
       simplify_individual_paths="false"
       simplify_just_coalesce="false"
       step="1" />
    <inkscape:path-effect
       effect="powerstroke"
       id="path-effect28506"
       is_visible="true"
       lpeversion="1"
       offset_points="3.394,0.5338 | 7.789,0.6051 | 14.54,0.7117"
       not_jump="true"
       sort_points="true"
       interpolator_type="CentripetalCatmullRom"
       interpolator_beta="0.75"
       start_linecap_type="butt"
       linejoin_type="spiro"
       miter_limit="4"
       scale_width="1"
       end_linecap_type="butt" />
    <inkscape:path-effect
       effect="simplify"
       id="path-effect28504"
       is_visible="true"
       lpeversion="1"
       steps="1"
       threshold="0.003331"
       smooth_angles="0"
       helper_size="0"
       simplify_individual_paths="false"
       simplify_just_coalesce="false"
       step="1" />
    <inkscape:path-effect
       effect="powerstroke"
       id="path-effect3027"
       is_visible="true"
       lpeversion="1"
       offset_points="1.254,0.3276 | 9.836,0.4246"
       not_jump="true"
       sort_points="true"
       interpolator_type="CentripetalCatmullRom"
       interpolator_beta="0.75"
       start_linecap_type="butt"
       linejoin_type="spiro"
       miter_limit="4"
       scale_width="1"
       end_linecap_type="butt" />
    <inkscape:path-effect
       effect="simplify"
       id="path-effect3025"
       is_visible="true"
       lpeversion="1"
       steps="1"
       threshold="0.003331"
       smooth_angles="0"
       helper_size="0"
       simplify_individual_paths="false"
       simplify_just_coalesce="false"
       step="1" />
    <mask
       maskUnits="userSpaceOnUse"
       id="mask16049">
      <path
         id="mask-powermask-path-effect16055_box"
         style="fill:#ffffff;fill-opacity:1"
         d="M -12.06,-20.29 H 124.7 V 206 H -12.06 Z" />
      <rect
         style="fill:url(#radialGradient16053);fill-opacity:1;fill-rule:evenodd;stroke-width:0.264599"
         id="rect16051"
         width="142.8"
         height="230.2"
         x="-16.86"
         y="-27.28" />
    </mask>
    <radialGradient
       inkscape:collect="always"
       xlink:href="#linearGradient12094"
       id="radialGradient16053"
       gradientUnits="userSpaceOnUse"
       gradientTransform="matrix(-0.7017,1.823,-1.535,-0.4998,212.4,-92.55)"
       cx="93.76"
       cy="52.77"
       fx="93.76"
       fy="52.77"
       r="71.4" />
    <filter
       id="mask-powermask-path-effect16055_inverse"
       inkscape:label="filtermask-powermask-path-effect16055"
       style="color-interpolation-filters:sRGB"
       height="100"
       width="100"
       x="-50"
       y="-50">
      <feColorMatrix
         id="mask-powermask-path-effect16055_primitive1"
         values="1"
         type="saturate"
         result="fbSourceGraphic" />
      <feColorMatrix
         id="mask-powermask-path-effect16055_primitive2"
         values="-1 0 0 0 1 0 -1 0 0 1 0 0 -1 0 1 0 0 0 1 0 "
         in="fbSourceGraphic" />
    </filter>
    <mask
       maskUnits="userSpaceOnUse"
       id="mask-powermask-path-effect16055">
      <path
         id="mask-powermask-path-effect16055_box"
         style="fill:#ffffff;fill-opacity:1"
         d="M -12.06,-20.29 H 124.7 V 206 H -12.06 Z" />
      <rect
         style="fill:url(#radialGradient16053);fill-opacity:1;fill-rule:evenodd;stroke-width:0.264599"
         id="rect16051"
         width="142.8"
         height="230.2"
         x="-16.86"
         y="-27.28" />
    </mask>
  </defs>
  <g
     inkscape:groupmode="layer"
     id="layer18"
     inkscape:label="room">
    <g
       id="g16047"
       mask="url(#mask-powermask-path-effect16055)"
       inkscape:path-effect="#path-effect16055">
      <g
         id="g12532">
        <path
           style="display:inline;fill:#7c7c7c;fill-opacity:1;stroke:none;stroke-width:0.2646px;stroke-linecap:butt;stroke-linejoin:miter;stroke-opacity:1"
           d="M 78.86,9.725 48.88,-19.29 -8.883,-2.802 -8.01,192.2 1.046,205 Z"
           id="path11280"
           sodipodi:nodetypes="cccccc"
           inkscape:original-d="M 78.86,9.725 48.88,-19.29 -8.883,-2.802 -8.01,192.2 1.046,205 Z" />
        <path
           style="display:inline;fill:#bbbbbb;fill-opacity:1;stroke:none;stroke-width:0.2646px;stroke-linecap:butt;stroke-linejoin:miter;stroke-opacity:1"
           d="M 0.5168,205 78.33,9.725 113.6,20.45 119.9,201 Z"
           id="path11542"
           sodipodi:nodetypes="ccccc"
           inkscape:original-d="M 0.5168,205 78.33,9.725 113.6,20.45 119.9,201 Z" />
        <path
           style="display:inline;fill:#a9a9a9;fill-opacity:1;stroke:none;stroke-width:0.2646px;stroke-linecap:butt;stroke-linejoin:miter;stroke-opacity:1"
           d="M 48.35,-19.29 123.7,-3.599 113.6,20.45 78.33,9.725 Z"
           id="path11750"
           sodipodi:nodetypes="ccccc"
           inkscape:original-d="M 48.35,-19.29 123.7,-3.599 113.6,20.45 78.33,9.725 Z" />
        <path
           style="display:inline;fill:#d0d0ff;fill-opacity:1;stroke:none;stroke-width:0.2646px;stroke-linecap:butt;stroke-linejoin:miter;stroke-opacity:1"
           d="M 67.91,29.54 60.87,46.38 -9.431,2.237 3.685,-19 Z"
           id="path6312"
           sodipodi:nodetypes="ccccc"
           inkscape:original-d="M 67.91,29.54 60.87,46.38 -9.431,2.237 3.685,-19 Z" />
        <path
           style="display:inline;fill:#d0d0ff;fill-opacity:1;stroke:none;stroke-width:0.2646px;stroke-linecap:butt;stroke-linejoin:miter;stroke-opacity:1"
           d="M 72.46,31.97 114.4,44.96 113,64.25 66.01,48.49 Z"
           id="path6594"
           sodipodi:nodetypes="ccccc"
           inkscape:original-d="M 72.46,31.97 114.4,44.96 113,64.25 66.01,48.49 Z" />
        <path
           style="display:inline;fill:#d0d0ff;fill-opacity:1;stroke:none;stroke-width:0.2646px;stroke-linecap:butt;stroke-linejoin:miter;stroke-opacity:1"
           d="M 59.12,50.94 56.1,58.21 -11.06,17.52 -8.503,8.34 Z"
           id="path7168"
           sodipodi:nodetypes="ccccc"
           inkscape:original-d="M 59.12,50.94 56.1,58.21 -11.06,17.52 -8.503,8.34 Z" />
        <path
           style="display:inline;fill:#d0d0ff;fill-opacity:1;stroke:none;stroke-width:0.2646px;stroke-linecap:butt;stroke-linejoin:miter;stroke-opacity:1"
           d="m 64.31,53.31 -2.9,7.35 51.79,18.48 -0.5,-8.86 z"
           id="path7435"
           sodipodi:nodetypes="ccccc" />
        <path
           style="display:inline;mix-blend-mode:multiply;fill:#ffffff;fill-opacity:1;fill-rule:evenodd;stroke-width:0.264579"
           id="rect6286"
           width="105.7"
           height="190.6"
           x="0.1467"
           y="-0.01761"
           sodipodi:type="rect" />
      </g>
    </g>
    <rect
       style="display:inline;mix-blend-mode:multiply;fill:#00708a;fill-opacity:1;fill-rule:evenodd;stroke-width:0.264677"
       id="rect1103"
       width="139.2"
       height="226"
       x="-14.26"
       y="-25.02"
       sodipodi:insensitive="true" />
  </g>
  <g
     inkscape:groupmode="layer"
     id="layer17"
     inkscape:label="character-group"
     style="display:inline"
     sodipodi:insensitive="true">
    <g
       id="eyes-group"
       transform="translate(1.989,0.468)"
       style="display:inline">
      <g
         id="g6009">
        <circle
           style="display:inline;fill:#ffffff;fill-opacity:1;fill-rule:evenodd;stroke-width:0.2646"
           id="path1170-1"
           cx="79.19"
           cy="119.1"
           r="7.544" />
        <path
           style="fill:#111111;stroke:none;stroke-width:1"
           d="m 78.63,116.8 c -2.6,1.1 -0.5,4.8 1.9,3.7 2.7,-1.2 0.7,-4.7 -1.9,-3.7 z"
           id="path5983" />
      </g>
      <g
         id="g6005">
        <circle
           style="fill:#ffffff;fill-opacity:1;fill-rule:evenodd;stroke-width:0.2646"
           id="path1170"
           cx="54.28"
           cy="113.2"
           r="7.544" />
        <path
           style="fill:#111111;stroke:none;stroke-width:1"
           d="m 53.63,111.6 c -1.8,1 -0.9,4.2 1.2,3.1 1.9,-0.9 0.8,-4.3 -1.2,-3.1"
           id="path1540" />
      </g>
    </g>
    <path
       id="path2040"
       style="display:inline;fill:#885c57;fill-opacity:1;stroke:none;stroke-width:1.00013"
       d="m 72.88,87.46 c -1.43,0 -2.86,0.19 -4.29,0.53 -2.2,0.61 -4.02,1.27 -6.11,2.28 -1.91,0.98 -3.89,1.69 -5.61,3.1 -4.9,4.2 -8.68,10.63 -10.88,16.63 -0.71,1.9 -2.19,4.1 -2.51,6.1 -1.3,0.4 -2.09,2 -2.7,3.1 -1.4,3.3 -1.29,6.9 -1.29,10.4 0,11.3 -1.51,23.3 2.51,34.1 1.3,3.3 3.89,9.9 8.39,9.5 1.19,1.7 4.6,1.8 6.51,2.2 5.79,1.3 12.51,-1.4 17.62,-3.8 2.19,-1 4.95,-2 6.56,-3.9 0.79,-1 1.09,-3.1 1.56,-4.2 0.82,-1.7 2.25,-2.7 2.75,-4.4 0.51,-1.5 -0.29,-2.9 0.69,-4.1 l 0.5,-1.6 1.17,-2.5 1.53,-4.1 0.77,-1.1 1.3,-2.6 0.9,1.1 c 2.88,-1.3 3.65,-4.5 4.73,-7.2 1.33,-3.4 3.32,-6.8 2.16,-10.5 l -2.53,0.2 c 0.72,-2.8 0.69,-2.7 1.27,-5.6 1.36,-6.1 -0.1,-14.2 -3.2,-19.5 C 92.88,98.5 90,94.58 87.19,92.49 83.06,89.45 77.98,87.44 72.88,87.46 Z m -19.19,22.24 2.7,1.2 2.2,1.5 1,2 -1.19,0.9 -5,-0.5 -5.42,-1.9 1.72,-2.5 z m 25.91,5.2 2.8,0.6 1.88,2.2 1.22,2.4 v 1.5 l -12.91,-2.3 0.1,-1.3 3.5,-2.8 z"
       sodipodi:nodetypes="ssssscssscssssscccccccsccsssscccccccccccccccccc"
       transform="translate(2.083e-6)" />
    <path
       id="path58448"
       style="display:inline;fill:#6b4445;fill-opacity:1;stroke:none;stroke-width:3.77953"
       d="m 314.5,344.1 c -1.5,0 -3,0.4 -4.3,1.3 -3.8,2.2 -2.3,9.4 -2.7,12.8 -0.7,10.2 -1.9,23.5 -6.4,32.6 -10.2,19.7 -24.8,20 -41.1,31 l 0.7,-6.4 -3,-2.3 c -5.3,-3.8 -5.8,13.2 -11.1,39.3 -1.5,7.6 -5.2,36.7 -13.7,38.2 -2.6,0.4 -6.3,0.7 -9.7,-0.4 -3.1,-1.1 -6,-6.4 -9.2,-6.4 -1.4,0 -3.7,2.2 -3.7,2.2 1.9,1.9 4.6,7.6 8.7,11.4 3.9,3.4 9.2,7.9 11.3,7.9 6.4,0.8 9.3,-7.5 14.6,-3 l 10.5,9.1 c 8.9,7.5 22.6,9.8 26.8,22.3 3.4,10.2 -4.9,20.8 -8.3,29.8 -2.7,8 -3,18.9 -2.3,27.2 1.5,13.3 0.7,40.3 13.9,38 2.3,-0.4 6.7,7.6 10.1,9.4 3.3,1.9 5.7,-2.4 9.4,-4.3 2.1,-1.1 4.3,-11.6 6.3,-13.4 3.2,-2.9 8.9,-19.1 10.4,-20.2 1.9,-1.4 0.9,-5.2 1.5,-7.1 6.7,-20.1 12.2,-32.7 20.2,-47.9 1.4,-2.5 5.5,1.6 7,-0.8 5,-8.3 12.7,-7.3 16.1,-17.9 3,-9.8 4.7,-19.5 7.7,-29.7 1.1,-3.8 3.8,-14.1 0.8,-17.5 -2.3,-3.8 -11.2,1.1 -14.6,2.2 -2.2,-10.2 1.6,-23.4 2.3,-34 0.8,-26.1 -3,-58.6 -19.3,-80.2 -4.3,-5.6 -18.1,-23.4 -28.9,-23.2 z m -115.8,68.5 c -0.5,0 -1.1,0 -1.6,0.1 -3.1,0.8 -6.4,1.9 -8.7,3.4 -6.5,4.2 -9.6,9.9 -8.6,12.5 0,0 1.5,0.8 1.8,0.4 1.6,-2.7 2.9,-6.1 5.3,-8.3 3.3,-3.1 11.7,-5.3 11.7,-5.3 l 4.1,-2.7 c -1,0 -2.5,-0.2 -4,-0.1 z m 98,9.5 c 13,-0.3 27.1,7 30.9,17.8 l -12.3,-6.8 c -7.7,-3.7 -10.6,-2.6 -20.5,-3 L 274,438 c 3.3,-11 12.7,-15.7 22.7,-15.9 z m -104.2,9.5 7,6.1 v 1.9 l -3,1.1 v 1.9 c 9.1,3.8 17.9,2.6 27.1,-0.8 2.7,-0.7 9.5,-3.4 6.8,-7.5 -1.9,-2.7 -7.2,-0.8 -9.8,-0.8 -9.6,0.8 -18.8,0 -28.1,-1.9 z m 104.2,2.3 11.7,1.5 9.3,6.4 5.1,11.7 1,7.6 -49.4,-12.5 10.4,-10.2 z M 217.8,469 c -18.4,1.6 -37.2,14 -43.3,31 v 0 c 6.1,-3 9.3,-6.8 14,-9.8 2,-1.5 6.1,-3 9.7,-5.3 1.7,-1.1 3.2,-3.8 4.6,-3.4 1.4,0.4 6,5.7 4.1,0.8 l -0.4,-3.4 2.6,-4.9 c 1.3,-2.3 3.1,-2.7 4.2,-3.1 z"
       sodipodi:nodetypes="ssssccssssscsssssssssssssssssscsssssscssccsscsccscccccsssccccccccccsssssscssc"
       transform="matrix(0.2646,0,0,0.2646,-0.0167,0)" />
    <path
       style="display:inline;fill:#351f21;fill-opacity:1;stroke:none;stroke-width:0.2646px;stroke-linecap:butt;stroke-linejoin:miter;stroke-opacity:1"
       d="m 61.16,116.3 c 0,0 -0.59,1.2 -1.07,1.6 -0.85,0.7 -1.95,1.1 -3.01,1.4 -1.24,0.4 -4,0.4 -4,0.4 0,0 2.25,-0.5 3.35,-0.9 0.86,-0.3 1.7,-0.7 2.53,-1.1 0.56,-0.3 1.64,-0.9 1.64,-0.9 z"
       id="path72705"
       sodipodi:nodetypes="csscsscc"
       transform="translate(2.083e-6)" />
    <path
       style="display:inline;fill:#110a0d;fill-opacity:1;stroke:none;stroke-width:1"
       d="m 71.18,87.77 c -2.1,0.28 -3.8,0.72 -5.8,1.59 -0.5,0.22 -3.1,1 -2.7,1.79 0.6,0.87 2,0.58 4.8,1.18 0.7,0.18 1.5,0.35 2.2,0.46 0.8,0.13 1.5,-0.73 2.3,-0.71 1.7,0 3.4,0.62 5.1,0.85 1.4,0.2 2.8,0.86 4.2,1.29 1.4,0.44 3,0.79 4.2,1.74 2.2,1.67 3.7,4.54 5.4,6.74 l 0.5,7.4 c 0.1,1.3 0.1,2.8 0.6,4 l 2.2,4.9 -0.3,2.9 -0.7,2.9 -0.4,4.8 0.7,1.3 c 0.6,1.3 2.4,-3.5 2.7,-4.6 1.4,-4.9 2.3,-8.7 1.6,-13.7 -0.4,-3.4 -1.2,-7 -2.7,-10.1 -4.2,-9.01 -13.5,-16.09 -23.9,-14.73 m -16.8,43.53 c -1.9,0.4 -1,0.4 -3,0.3 -1.7,-0.1 -3.4,-0.7 -4.8,0.6 -2.2,2 -4,6.1 -3.3,9.1 0.3,1.6 1.5,3.2 2.3,4.5 1,1.7 1.9,3.6 3.2,5.1 3.1,3.4 7.7,5.6 11.8,7.5 3.3,1.5 4.8,4.1 8.8,3.1 2.4,-0.5 3.9,-2.7 4.6,-4.8 1.2,-3.6 1.8,-7.3 2,-11.1 0.1,-1.5 0.6,-3.1 0,-4.5 -0.5,-1 -1.5,-1.5 -2.4,-2.1 -2.1,-1.2 -4.1,-2.4 -5.8,-4.1 -0.9,-0.8 -2.2,-2.3 -3.5,-2.6 -1.2,-0.3 -2.1,1.2 -3.4,1 -1.7,-0.2 -1.7,-2.8 -3.6,-2.4 m -5.3,14.5 c -1.5,-1.5 -3,-1.2 -4,-2.8 -1.5,-2.7 -0.8,-7 2,-8.1 1.3,-0.5 2.7,-0.2 4,-0.1 3.5,0.5 7.1,1.2 10.1,3.2 1.7,1.2 4.8,5.1 3.3,7.3 -1.7,2.4 -4.3,3.1 -6.8,2.6 l -3.6,-0.7 -0.3,-2.5 -3.5,-0.8 z"
       id="path5103"
       sodipodi:nodetypes="cssssssssccsccccssssccssssssssssssssccsssssscccc"
       transform="translate(2.083e-6)" />
    <path
       style="display:inline;opacity:1;fill:#000000;fill-opacity:1;stroke:none;stroke-width:0.999999"
       d="m 90.98,144.6 c 2,0.6 3.1,-0.8 4.3,-2.3 2.3,-3.2 3.6,-7.7 4.39,-11.4 0.63,-2.7 1.13,-5.2 -2.39,-5 5.82,-15.8 -3.7,-36.86 -21.4,-39.09 -2.4,-0.31 -5,-0.25 -7.4,0.32 -7.9,1.88 -15.5,7.43 -19.4,14.47 -2,3.5 -2.9,7.5 -4.5,11.1 -1.3,3.1 -3.8,5.2 -4.8,8.5 -1.1,3.8 -0.5,7.8 -0.7,11.8 -0.5,10 -1.4,21.1 2.3,30.7 1.1,2.8 2.4,6.3 4.6,8.4 1.9,1.7 4.5,2.5 6.9,3.1 7.5,2 14.2,0.4 21.2,-3 2.3,-1.1 5.3,-2.1 7,-4.1 0.9,-1 0.9,-2.4 1.4,-3.6 0.9,-1.9 2.5,-3.4 3.2,-5.3 0.5,-1.4 0.1,-3 0.7,-4.5 1.3,-3.4 3.8,-6.4 4.6,-10.1 m 2.9,-14 h -0.3 l -0.4,-4.2 1.4,-7.3 -2.9,-6.7 -0.4,-9.7 -1.8,-2.4 -3.9,-5.18 -4.1,-1.41 -9.3,-2.13 -2.4,0.29 -6.1,-0.84 c 1.6,-1.99 5.1,-2.72 7.4,-2.92 6.3,-0.53 12.2,1.47 17,5.47 9.7,8.12 12.32,26.42 5.8,37.02 m -28.6,-37.46 4.5,0.2 8,-0.11 3.4,1.43 4.1,1.46 5.2,6.58 c 0.8,3.4 -0.1,7.1 0.7,10.5 0.6,2.5 2.6,4.4 2.7,6.9 0.1,3.6 -2.8,6.8 -1.1,10.5 1.1,2.1 3,0.7 4.3,-0.2 l -0.3,1.8 c 0,0 2.31,-2.1 1.6,-2.9 -0.73,-0.9 -3.2,1.1 -3.2,1.1 0.6,-1.9 3.18,-5.1 3.76,-3.2 1.16,3.9 -0.67,5.7 -2.66,10.6 -0.9,2.2 -2,4.7 -4.3,5.8 l -0.2,-1.9 c -1.7,1.7 -2.4,4 -3.3,6.1 -1.2,3 -2.8,5.8 -3.5,8.9 -0.2,0.8 0.2,1.5 0,2.2 -0.5,1.4 -1.8,2.7 -2.4,4 -0.8,1.5 -1,3.5 -2.2,4.7 -2.1,1.8 -4.9,2.9 -7.4,4 -6.6,3 -12.5,4.5 -19.6,2.7 -2.1,-0.6 -4.6,-1.3 -6.3,-2.7 -3,-2.6 -4.6,-8 -5.6,-11.6 -1.7,-6.3 -1.2,-12.9 -1.3,-19.3 -0.2,-6.1 -0.9,-13.1 0.7,-19.1 0.8,-2.8 2.9,-4.9 4.3,-7.6 0.9,-1.6 1.1,-3.3 1.6,-5 1.9,-5.6 6.2,-12.1 11.1,-15.39 1.8,-1.17 6.1,-3.07 7.4,-0.47 m -16.4,15.06 3.7,-1.8 9,1.5 c -0.5,-2.1 -3,-2.9 -5,-3.1 -3.2,-0.3 -6.9,-0.5 -7.7,3.4 m 23.8,0.3 c 1.7,4.3 8,2.2 11.4,3.6 2.1,0.9 3,3.2 5,4.3 -2.1,-6.7 -9.8,-9.4 -16.4,-7.9 m -25.7,5.3 c 2.5,-0.1 4.1,0.9 6.4,1.4 0.9,0.2 1.8,0.4 2.7,0.4 1,0.1 3.5,0.5 3.9,-0.9 0.6,-1.5 -1.3,-3.1 -2.4,-3.8 -2.8,-2 -6.3,-2.6 -8.9,0 -0.9,0.8 -1.5,1.7 -1.7,2.9 m 20.4,-4 -0.5,3.7 h 0.3 l 0.8,-3.7 h -0.6 m -8.2,4.8 -4.7,-0.3 -5.8,-1.6 c 2.9,-3.8 8.4,-1.9 10.5,1.9 m 7.3,-0.6 0.1,0.1 -0.1,-0.1 m 19.5,8.4 c 1.1,-5.8 -5.5,-9.9 -10.6,-7.3 -1.2,0.6 -4.9,2.9 -3.3,4.6 1.5,1.5 5.5,1.4 7.5,1.7 2.1,0.4 4.3,0.6 6.4,1 m -0.8,-1.2 -12.2,-2.4 c 2.6,-3.2 7.6,-5 10.7,-1.2 0.8,1 1.1,2.4 1.5,3.6 m -30.2,7.3 c 0,0 -0.1,-1.4 0.16,-2 0.34,-0.9 1.74,-2.2 1.74,-2.2 -1.8,0.4 -3.9,2.8 -1.9,4.2 m -1.6,-1.3 c -4.9,2.8 -10.3,6 -10.8,12.2 -0.2,2.5 1.4,4.5 2.6,6.6 1,1.7 1.9,3.7 3.3,5.2 3.1,3.5 7.7,5.6 11.8,7.7 2.5,1.3 4.1,3.6 7.1,3.6 7.6,0.1 8.9,-10.1 9.3,-15.7 0.2,-1.8 0.8,-4.1 0,-5.8 -0.7,-1.5 -2.9,-2.1 -4.2,-2.9 -2.7,-1.6 -5.2,-3.6 -7.1,-6.2 0.6,0 1.4,0.1 2,-0.2 0.9,-0.5 0,-1.2 -0.7,-1.2 -2,-0.1 -4.5,2.3 -6.3,1.6 -1.7,-0.7 -2.7,-3.1 -3.8,-4.4 h -0.2 l -0.6,0.5 v 0.3 l 1.6,1.9 -8.2,0.5 c 1.1,-1.1 4.3,-2.1 4.3,-3.7 m 17.46,4.7 c -0.14,0.6 -0.86,1.6 -0.86,1.6 1.9,-0.5 1.5,-2.2 0.8,-3.7 0,0 0.22,1.4 0.1,2.1 z m -13.06,-0.7 c 0.8,1.1 1.9,2.6 3.5,2.4 1.1,-0.2 2.2,-1.4 3.4,-0.8 1.6,0.7 3,2.9 4.5,4 1.7,1.3 4.4,2.2 5.9,3.8 1.1,1.2 0.5,4.1 0.4,5.6 -0.3,4.8 -2.1,15 -8.2,15.1 -2.8,0 -4.2,-2.3 -6.6,-3.4 -4,-1.9 -8.4,-3.9 -11.6,-7.2 -1.3,-1.4 -2.3,-3.3 -3.3,-5 -2.6,-4.1 -3.5,-8.6 0.2,-12.6 1.9,-2 4.2,-1 6.5,-1 1.9,0 3.5,-0.5 5.3,-0.9 m -5.5,15.3 1,-2.6 2.9,0.7 v 3.2 c 3.5,0 11.2,1 12.4,-3.7 0.4,-1.5 -1.1,-3 -1.9,-4.2 -3.1,-4.5 -9.8,-6 -15,-6.2 -4.1,-0.2 -6.5,4.7 -5.1,8.3 0.9,2.2 3.6,3.6 5.7,4.5 m 42.06,-9.6 -1.36,2.5 c 2.8,-0.6 2.5,-3.1 2.1,-5.3 l -0.19,-0.2 m -29.71,8.9 h -0.2 c -1.5,-2.4 -3.6,-2.7 -6.1,-3.4 -3.3,-0.8 -7,-1.5 -9.8,-3.5 1.6,-1.5 3.8,-0.9 5.8,-0.5 4.9,0.8 9.3,2.1 10.3,7.4 m -0.5,0.3 c -1.2,0.4 -2.4,1 -3.7,1.2 -3.1,0.3 -6.7,-1.1 -9.5,-2.4 -1.5,-0.6 -4.5,-2.2 -3.5,-4.3 0.6,-1.3 3.3,0.4 4.3,0.7 4,1.5 9.6,1.2 12.4,4.8 m -17.2,-2.7 4.8,3.7 -0.3,0.3 c -1.6,-0.5 -5,-1.9 -4.5,-4 m 18.8,0.5 c 2,2.9 0.3,5.6 -3.2,6 -1.9,0.3 -4.1,-0.6 -6.1,-0.7 l 0.3,-1.3 c 2.4,0.4 6.2,0.6 8,-1.4 0.7,-0.7 0.7,-1.7 1,-2.6 z"
       id="path1217"
       sodipodi:nodetypes="csscsssssssssssssscccccccccccccsscccccccsssccscssccssssssssssssssccccsccscccsssssccccccccccccccssscccsccscccsssssssscssssccccccsccscssssssssssscccccssssccccccsscsccssssccccccsccsc"
       transform="translate(2.083e-6)" />
    <path
       style="display:inline;fill:#242637;fill-opacity:1;stroke:#000000;stroke-width:0.2646px;stroke-linecap:butt;stroke-linejoin:miter;stroke-opacity:1"
       d="m 105,190.7 -104.9204,0.1 -0.1,-36.5 2.6014,-1 0.8,1.3 14.899,-1.8 5.9,0.4 1.6,-0.4 h 3.8 l 2.2,-0.5 3.5,-0.6 45.5,19.2 6,4.6 3.9,3.5 h 2.6 l 3.4,3.1 4.32,2.6 3.8,1.8 z"
       id="path4878"
       sodipodi:nodetypes="ccccccccccccccccccc"
       transform="translate(2.083e-6)" />
    <path
       style="display:inline;opacity:0.4899;mix-blend-mode:multiply;fill:#000000;fill-opacity:1;stroke:#000000;stroke-width:0.2646px;stroke-linecap:butt;stroke-linejoin:miter;stroke-opacity:1"
       d="m 5.981,166.3 c 0,0 -2.7,6.3 -2.8,10.4 0,4 0.2,8.4 0.7,4 0.5,-4.4 2.1,-14.4 2.1,-14.4 z"
       id="path28832"
       sodipodi:nodetypes="cssc"
       transform="translate(2.083e-6)" />
    <path
       style="display:inline;opacity:0.4899;mix-blend-mode:multiply;fill:#000000;fill-opacity:1;stroke:#000000;stroke-width:0.2646px;stroke-linecap:butt;stroke-linejoin:miter;stroke-opacity:1"
       d="m 8.481,177.2 c 0,0 2.299,-10.2 2.799,-11.2 0.6,-1.1 -1.299,-0.3 -1.699,0.1 -2.7,2.6 -1.2,2.1 -1.1,11.1 z"
       id="path29574"
       sodipodi:nodetypes="cssc"
       transform="translate(2.083e-6)" />
    <path
       style="display:inline;opacity:0.4899;mix-blend-mode:multiply;fill:#000000;fill-opacity:1;stroke:#000000;stroke-width:0.2646px;stroke-linecap:butt;stroke-linejoin:miter;stroke-opacity:1"
       d="m 12.88,165.3 c 0,0 -0.9,8.1 -2.999,13.5 -2.2,5.5 2.999,-13.5 2.999,-13.5 z"
       id="path38435"
       transform="translate(2.083e-6)" />
    <path
       style="display:inline;fill:#000000;fill-opacity:1;stroke:none;stroke-width:0.999999"
       d="m 28.78,152.6 -6.4,-0.1 -5,-0.5 -4,0.8 -9.999,0.8 c -0.7,-2.3 -3.601,-1 -3.701,1.1 l 2.401,-0.8 c 0.6,1.7 3.3,0.9 4.7,0.7 2.501,-0.4 4.999,-0.2 7.399,-0.5 2.3,-0.3 4,-1.1 6.4,-0.6 2.1,0.4 3.3,-0.2 5.3,-0.5 1.1,-0.1 2,0.6 3.2,0.5 3.7,-0.4 6.5,-1.9 10.3,-0.3 4.4,1.8 8.2,5.1 12.4,7.6 3.3,1.8 6.9,3 10.1,4.8 4,2.4 7.3,5.1 12.1,5.7 -1.2,-1 -3.2,-1.4 -4.7,-2.3 -2.4,-1.3 -4.5,-3.2 -6.9,-4.5 -1.6,-0.9 -3.4,-1.3 -5,-2.1 -5.7,-3 -10.9,-7.2 -16.7,-10 -2.9,-1.3 -5.2,-1.2 -8.2,-0.9 -1.4,0.1 -2.8,-0.2 -3.7,1.1 m -16.4,12.1 -3.198,14.6 1.498,-4.3 2.2,-10.3 h -0.5 m -6.599,1.1 -0.3,1.3 h 0.8 v -1.3 h -0.5 m 3.9,0.5 v 1.6 h 0.3 l -0.3,-1.6 m 68.799,3.2 1.6,-0.3 c 0.5,2.5 3.3,4.1 5.1,5.6 1.6,1.5 3.3,3.5 5.3,4.5 0.8,0.5 1.8,0.1 2.5,0.6 3.6,2.5 6.69,6.3 11.22,6.8 l 0.8,3.7 h 0.6 c 0,-1.3 0.3,-3.1 -0.4,-4.2 -0.9,-1.4 -2.8,-1.4 -4.1,-2 -1.33,-0.6 -2.32,-1.6 -3.52,-2.4 -1.4,-1 -2.7,-2.8 -4.2,-3.6 -0.8,-0.3 -1.6,0.2 -2.4,-0.2 -1.3,-0.6 -2.6,-2 -3.7,-2.9 -2.9,-2.3 -5.3,-4.1 -6.9,-7.5 l -1.9,1.9 m -72.999,-1.6 0.3,0.3 -0.3,-0.3 m 0.2,0.6 0.2,0.1 -0.2,-0.1 m 3.8,-0.1 v 1.4 h 0.2 l -0.2,-1.4 m -4.3,0.6 -1.5,11.9 h 0.5 l 1.6,-11.9 h -0.6 m 4.001,2.1 0.299,0.2 -0.299,-0.2 m -0.501,1 -1.3,11.9 h 0.2 l 1.1,-8.2 z"
       id="path1384"
       transform="translate(2.083e-6)" />
    <path
       style="display:inline;fill:#885c57;fill-opacity:1;stroke:none;stroke-width:0.2646px;stroke-linecap:butt;stroke-linejoin:miter;stroke-opacity:1"
       d="m 69.38,158 -5.5,-6.4 -5.2,-7.6 -3.8,-2.3 -11.3,-3.4 -4.9,3.2 -3.8,5.3 0.1,1.3 5.5,-0.8 -1,2.3 -3.3,2.4 -4.7,9.1 -2.9,2.6 -1.1,3.9 1.4,4 4.7,1.6 2.3,3.2 7.3,5.2 8.5,4.7 2,0.4 2,4.4 33.3,0.3 -5,-17 -3.8,-4.8 -0.3,-3.6 0.9,-2.1 3.4,-1.9 1,-1.2 -0.7,-2.4 -3.2,-1.1 -6.3,0.7 -1.7,0.8 -1.2,2.5 z"
       id="path1541"
       transform="translate(2.083e-6)" />
    <path
       style="display:inline;fill:#6b4445;fill-opacity:1;stroke:none;stroke-width:0.2646px;stroke-linecap:butt;stroke-linejoin:miter;stroke-opacity:1"
       d="m 40.39,147.9 c -1.69,0.8 -5.66,-0.1 -5.66,-0.1 0,0 1.82,-2.4 2.99,-3.4 1.09,-0.9 2.31,-1.7 3.67,-2.1 1.4,-0.4 2.94,-0.4 4.37,-0.1 1.38,0.3 2.76,0.8 3.89,1.6 0.45,0.3 1.06,1.3 1.06,1.3 0,0 -3.4,-0.4 -5.11,-0.4 -1.01,0 -2.14,-0.3 -3.02,0.2 -1.08,0.6 -1.08,2.4 -2.19,3 z"
       id="path46017"
       sodipodi:nodetypes="scsssscsss"
       transform="translate(2.083e-6)" />
    <path
       style="display:inline;fill:#6b4445;fill-opacity:1;stroke:none;stroke-width:0.2646px;stroke-linecap:butt;stroke-linejoin:miter;stroke-opacity:1"
       d="m 33.48,172.8 -2.64,-0.3 -2.07,-1.7 -1.16,-2.6 c 0,0 0.3,-1 0.74,-1.2 1.38,-0.5 3.15,0.2 4.28,1.2 0.64,0.5 0.54,1.6 1.06,2.3 0.65,0.8 1.51,1.5 2.46,2 0.97,0.5 2.16,0.3 3.15,0.7 0.93,0.4 1.7,1.1 2.54,1.6 0.85,0.6 1.74,1.1 2.54,1.7 1.01,0.8 1.88,1.7 2.83,2.6 0.74,0.7 1.5,1.3 2.25,2 0.75,0.7 1.66,1.2 2.25,2 0.3,0.4 0.44,0.9 0.61,1.4 0.2,0.6 0.48,1.7 0.48,1.7 l 2.41,3 3.73,0.7 0.84,0.9 -4.28,0.1 c 0,0 -1.82,-3.4 -3.26,-4.7 -2.54,-2.2 -9.02,-4.6 -9.02,-4.6 l -5.9,-4.2 z"
       id="path47204"
       sodipodi:nodetypes="ccccssssssssssscccccsccc"
       transform="translate(2.083e-6)" />
    <path
       id="path48739"
       style="display:inline;fill:#6b4445;fill-opacity:1;stroke:none;stroke-width:1.00006px;stroke-linecap:butt;stroke-linejoin:miter;stroke-opacity:1"
       d="m 269.9,724.9 c 11.4,-0.7 0.9,-0.7 0.9,-0.7 l 64,-1.9 L 318.5,661 284.3,627.8 253.2,590 c 0,0 5.9,19.3 8.4,29.1 2.3,9.1 5.1,18.2 6.1,27.6 0.5,4.2 0.9,8.6 0,12.8 -0.8,3.4 -3.5,6.1 -4.4,9.5 -1.3,5 -1.4,15.5 -1.4,15.5 0,0 5.3,24.3 2,25.4"
       sodipodi:nodetypes="ccccccsssscc"
       transform="matrix(0.2646,0,0,0.2646,-0.0167,0)" />
    <path
       style="display:inline;fill:#6b4445;fill-opacity:1;stroke:none;stroke-width:0.2646px;stroke-linecap:butt;stroke-linejoin:miter;stroke-opacity:1"
       d="m 79.93,170 -0.41,-3.8 0.8,-2.2 2.92,-1.6 0.97,-0.8 0.73,-1.1 -0.7,-1.9 -1.34,-0.6 -1.68,-0.3 -3.29,-0.1 -2.68,0.5 -2.02,1.2 -0.94,2.2 2.88,4 z"
       id="path51276"
       sodipodi:nodetypes="ccccccccccccccc"
       transform="translate(2.083e-6)" />
    <path
       style="display:inline;opacity:1;fill:#000000;fill-opacity:1;stroke:none;stroke-width:1"
       d="m 33.98,148 c 1.8,0.9 3.4,0.9 5.3,0.3 -0.8,1.5 -2.4,2 -3.4,3.4 -0.6,0.9 -0.9,2 -1.6,2.9 -0.7,1.1 -1.8,1.8 -2.4,2.9 -0.6,1.1 -0.8,2.2 -1.5,3.2 -1.6,2.1 -3.2,3.2 -3.5,6.1 -0.3,2.3 0.5,5.1 2.9,6.1 0.9,0.4 2.1,0 3,0.7 1.3,1 2,2.6 3.3,3.6 5,4.2 10.2,7 15.9,9.9 1.9,1 1.9,3.7 4,4.3 -0.3,-2 -1.3,-3.6 -2.3,-5.3 -0.5,-0.8 -1.2,-1.7 -2,-0.8 h -0.2 c -1.4,-1 -3.1,-1.4 -4.5,-2.2 -3.6,-2.2 -7.4,-4.7 -10.6,-7.4 -2.6,-2.2 -3.1,-5.9 -6.6,-6.8 l 2.3,3.2 c -3.7,-0.7 -4.7,-4.7 -2.9,-7.7 0.8,-1.3 2.3,-2 2.9,-3.4 1,-2.1 2.3,-3.4 3.5,-5.3 0.7,-1.1 1,-2.4 1.8,-3.4 0.7,-0.9 1.8,-1.3 2.5,-2.2 1,-1.3 1,-3.6 2.6,-4.4 1.8,-1 5.4,-0.3 7.4,-0.3 -0.7,-1 -2.1,-1 -3.2,-1.1 -3,-0.3 -5.4,-0.5 -6.9,2.7 l -4.5,0.5 c 1.3,-3.1 3.2,-5.1 5.8,-7 0.8,-0.6 1.9,-1.7 2.9,-1.6 1,0 2.1,0.7 3,1 3.6,1.3 6.1,3.4 9.2,5.5 l -1.3,-2.9 c 4.9,2.4 8.2,9 11.5,13.2 1.5,1.9 3.2,3.6 4.6,5.5 1.4,1.9 2.4,3.9 4,5.6 2.8,2.9 6.8,5.4 8.7,9 0.8,1.4 1.1,3.4 1.5,5 1.1,3.5 2.1,7 2.8,10.6 h 1.3 c -0.5,-3.6 -1.8,-7.1 -2.8,-10.6 -0.6,-2.1 -1.1,-4.7 -2,-6.6 -1.3,-2.5 -3.7,-3.5 -4.1,-6.6 -0.2,-0.9 -0.3,-2 0.3,-2.7 1.4,-1.8 5.9,-2.6 4.7,-5.8 -0.5,-1.4 -1.9,-1.8 -3.2,-2 -2.8,-0.4 -8.9,-0.3 -10.1,2.8 -3,-3 -6.1,-6.3 -8.6,-9.8 -1.9,-2.7 -3.6,-5.9 -6.5,-7.8 -2.7,-1.8 -6.5,-2.2 -9.5,-3.4 -1.2,-0.5 -3,-1.6 -4.2,-1.5 -1.1,0.1 -2.2,1.2 -3,1.8 -2.7,2 -5.8,5.2 -6.3,8.8 m 22.2,-2.1 v 0.5 l 0.6,-0.5 h -0.6 m -16.7,2.1 -0.2,0.3 0.2,-0.3 m 41.6,10.1 v 0.2 l -2.4,1.9 c 2.6,1.4 0.8,3.8 0.4,5.8 -0.1,0.8 0.1,1.8 0.1,2.6 -2.1,-1.4 -3.8,-3.3 -5.2,-5.5 -0.4,-0.7 -1.3,-1.7 -1,-2.6 0.9,-2.8 5.9,-2.4 8.1,-2.4 m -0.5,5.3 -0.6,-3.7 c 1,-0.3 2.7,-1.4 3.7,-1 0.9,0.3 0.9,1.6 0.5,2.3 -0.6,1.2 -2.4,2.1 -3.6,2.4 m -16.2,18.5 1.1,1.3 v -1.6 z"
       id="path1437"
       transform="translate(2.083e-6)" />
  </g>
</svg>
