<?xml version="1.0" encoding="UTF-8" standalone="no"?>
<!-- Created with Inkscape (http://www.inkscape.org/) -->

<svg
   width="3214"
   height="2022"
   viewBox="0 0 850.3 535"
   version="1.1"
   id="svg5"
   inkscape:version="1.1.2 (08b2f3d93c, 2022-04-05)"
   sodipodi:docname="funnel.svg"
   xmlns:inkscape="http://www.inkscape.org/namespaces/inkscape"
   xmlns:sodipodi="http://sodipodi.sourceforge.net/DTD/sodipodi-0.dtd"
   xmlns="http://www.w3.org/2000/svg"
   xmlns:svg="http://www.w3.org/2000/svg">
  <sodipodi:namedview
     id="namedview7"
     pagecolor="#ffffff"
     bordercolor="#111111"
     borderopacity="1"
     inkscape:pageshadow="0"
     inkscape:pageopacity="0"
     inkscape:pagecheckerboard="1"
     inkscape:document-units="px"
     showgrid="false"
     inkscape:snap-global="false"
     inkscape:zoom="0.1132"
     inkscape:cx="2742"
     inkscape:cy="1788"
     inkscape:window-width="1920"
     inkscape:window-height="1052"
     inkscape:window-x="0"
     inkscape:window-y="0"
     inkscape:window-maximized="1"
     inkscape:current-layer="layer1"
     fit-margin-top="0"
     fit-margin-left="0"
     fit-margin-right="0"
     fit-margin-bottom="0"
     units="px" />
  <defs
     id="defs2" />
  <g
     inkscape:label="Layer 1"
     inkscape:groupmode="layer"
     id="layer1"
     transform="translate(122.1,-53.22)">
    <g
       id="spiral-far"
       transform="matrix(-0.5052,1.954,-1.938,-0.5012,622.6,-449.6)"
       style="stroke-width:0.497568">
      <g
         id="g19448"
         style="stroke-width:0.497568">
        <path
           id="path846"
           style="fill:#ffffff;fill-opacity:1;fill-rule:evenodd;stroke-width:0.131664"
           d="m 319.5,-72.09 a 69.75,73.48 74.91 0 0 -18.4,2.65 69.75,73.48 74.91 0 0 -52.8,86.48 69.75,73.48 74.91 0 0 89.2,48.21 69.75,73.48 74.91 0 0 52.7,-86.47 69.75,73.48 74.91 0 0 -70.7,-50.87 z m -5.2,34.84 a 33,33 0 0 1 33,32.991 33,33 0 0 1 -33,32.999 33,33 0 0 1 -33,-32.999 33,33 0 0 1 33,-32.991 z" />
        <path
           id="path846-7"
           style="fill:#7b7b7b;fill-opacity:1;fill-rule:evenodd;stroke-width:0.131662"
           d="M 319.3,-45.05 A 40.25,42.97 0 0 0 279.1,-2.109 40.25,42.97 0 0 0 319.3,40.9 40.25,42.97 0 0 0 359.5,-2.109 40.25,42.97 0 0 0 319.3,-45.05 Z m 0.7,9.8 A 33,33 0 0 1 353,-2.329 33,33 0 0 1 320,30.7 33,33 0 0 1 287,-2.329 33,33 0 0 1 320,-35.25 Z" />
        <path
           id="path846-1-8"
           style="fill:#b6b6b6;fill-opacity:1;fill-rule:evenodd;stroke-width:0.131692"
           d="M 319.3,-59.75 A 56.47,57.6 0 0 0 262.8,-2.149 56.47,57.6 0 0 0 319.3,55.6 56.47,57.6 0 0 0 375.8,-2.149 56.47,57.6 0 0 0 319.3,-59.75 Z m 0.1,27.7 a 33,33 0 0 1 33,33.001 33,33 0 0 1 -33,33.149 33,33 0 0 1 -33,-33.149 33,33 0 0 1 33,-33.001 z" />
        <path
           id="path846-1"
           style="fill:#a8a8a8;fill-opacity:1;fill-rule:evenodd;stroke-width:0.131663"
           d="m 314.7,-61.74 a 63.74,58.93 22.26 0 0 -54.4,35.5 63.74,58.93 22.26 0 0 36.6,78.74 63.74,58.93 22.26 0 0 81.3,-30.4 63.74,58.93 22.26 0 0 -36.6,-78.74 63.74,58.93 22.26 0 0 -26.9,-5.1 z m 4.4,24.7 a 33,33 0 0 1 33,33.001 33,33 0 0 1 -33,33.039 33,33 0 0 1 -33,-33.039 33,33 0 0 1 33,-33.001 z" />
        <path
           id="path846-1-8-5"
           style="fill:#7b7b7b;fill-opacity:1;fill-rule:evenodd;stroke-width:0.131662"
           d="m 321.7,-55.04 a 50.3,53.05 12.47 0 0 -51.5,42.1 50.3,53.05 12.47 0 0 37.7,62.74 50.3,53.05 12.47 0 0 60.5,-40.999 50.3,53.05 12.47 0 0 -37.7,-62.641 50.3,53.05 12.47 0 0 -9,-1.2 z m -2.6,9.3 a 33,33 0 0 1 33,33 33,33 0 0 1 -33,33.04 33,33 0 0 1 -33,-33.04 33,33 0 0 1 33,-33 z" />
        <path
           id="path846-7-5"
           style="fill:#ffffff;fill-opacity:1;fill-rule:evenodd;stroke-width:0.131695"
           d="m 317.9,-47.76 a 45.88,43.18 74.16 0 0 -11.1,1.6 45.88,43.18 74.16 0 0 -29.1,55.861 45.88,43.18 74.16 0 0 54,32.299 45.88,43.18 74.16 0 0 29.1,-55.86 45.88,43.18 74.16 0 0 -42.9,-33.9 z m 3.1,11.5 A 33,33 0 0 1 354,-3.259 33,33 0 0 1 321,29.6 33,33 0 0 1 288,-3.259 33,33 0 0 1 321,-36.26 Z" />
        <path
           id="path846-1-8-5-9"
           style="fill:#979797;fill-opacity:1;fill-rule:evenodd;stroke-width:0.131662"
           d="M 319.3,-40.6 A 38.5,38.5 0 0 0 280.8,-2.099 38.5,38.5 0 0 0 319.3,36.4 38.5,38.5 0 0 0 357.8,-2.099 38.5,38.5 0 0 0 319.3,-40.6 Z m 0.7,5.9 A 33,33 0 0 1 353,-1.699 33,33 0 0 1 320,31.3 33,33 0 0 1 287,-1.699 33,33 0 0 1 320,-34.7 Z" />
      </g>
    </g>
    <g
       id="spiral-mid"
       transform="rotate(-29.5,246.6,-477.1)">
      <g
         id="g55728">
        <path
           id="path19488"
           style="fill:#ffffff;fill-opacity:1;fill-rule:evenodd;stroke-width:0.264656"
           d="M 45.82,76.44 A 169.7,144.9 16.4 0 0 -101.9,170.2 169.7,144.9 16.4 0 0 12.13,360.4 169.7,144.9 16.4 0 0 220.4,276.2 169.7,144.9 16.4 0 0 105.9,85.99 169.7,144.9 16.4 0 0 45.82,76.44 Z M 56.96,104.6 A 110.5,100.8 0 0 1 167.8,205.5 110.5,100.8 0 0 1 56.96,306.1 110.5,100.8 0 0 1 -53.45,205.5 110.5,100.8 0 0 1 56.96,104.6 Z" />
        <path
           id="path19484"
           style="fill:#c0c0c0;fill-opacity:1;fill-rule:evenodd;stroke-width:1.00008"
           d="M 187.2,378.3 A 537.2,443.2 0.0518 0 0 -48.34,427.2 537.2,443.2 0.0518 0 0 -280.4,1024 537.2,443.2 0.0518 0 0 443,1216 537.2,443.2 0.0518 0 0 675.1,618.9 537.2,443.2 0.0518 0 0 187.2,378.3 Z m 33.5,192.8 A 239.3,222.6 0 0 1 460.3,793.7 239.3,222.6 0 0 1 220.7,1016 239.3,222.6 0 0 1 -18.68,793.7 239.3,222.6 0 0 1 220.7,571.1 Z"
           transform="scale(0.2646)" />
        <path
           id="path19486"
           style="fill:#a8a8a8;fill-opacity:1;fill-rule:evenodd;stroke-width:0.264569"
           d="m 36.14,116.5 a 106.2,96.74 65.67 0 0 -25.94,4.2 106.2,96.74 65.67 0 0 -57.76,130 106.2,96.74 65.67 0 0 126.55,70.8 106.2,96.74 65.67 0 0 57.81,-130 106.2,96.74 65.67 0 0 -100.66,-75 z m 6.91,45.9 A 56.96,51.3 0 0 1 100.2,213.7 56.96,51.3 0 0 1 43.05,265 56.96,51.3 0 0 1 -13.83,213.7 56.96,51.3 0 0 1 43.05,162.4 Z" />
        <path
           id="path19488-2"
           style="fill:#ffffff;fill-opacity:1;fill-rule:evenodd;stroke-width:0.264531"
           d="m 127.3,168.5 a 114,106.3 68.08 0 0 -112.14,-56 114,106.3 68.08 0 0 -84,128.4 114,106.3 68.08 0 0 126.7,94.8 114,106.3 68.08 0 0 83.94,-128.9 114,106.3 68.08 0 0 -14.5,-38.3 z m -14.5,15.6 A 76.93,71.38 27.05 0 1 85.46,281.9 76.93,71.38 27.05 0 1 -18.14,249.7 76.93,71.38 27.05 0 1 8.964,152.2 76.93,71.38 27.05 0 1 112.8,184.1 Z" />
        <path
           id="path19490"
           style="fill:#979797;fill-opacity:1;fill-rule:evenodd;stroke-width:0.264519"
           d="M 57.68,102.1 A 111,116.2 60.64 0 0 25.7,106.6 111,116.2 60.64 0 0 -58.59,245.5 111,116.2 60.64 0 0 80.48,322.4 111,116.2 60.64 0 0 164.8,183.4 111,116.2 60.64 0 0 57.68,102.1 Z m -9.46,41.2 A 67.37,65.56 0 0 1 115.7,209 67.37,65.56 0 0 1 48.22,274.6 67.37,65.56 0 0 1 -19.16,209 67.37,65.56 0 0 1 48.22,143.3 Z" />
        <path
           id="path19492"
           style="fill:#c0c0c0;fill-opacity:1;fill-rule:evenodd;stroke-width:0.264693"
           d="M 92.89,130 A 116.8,95.17 27.16 0 0 -51.49,168 116.8,95.17 27.16 0 0 15.86,304.3 116.8,95.17 27.16 0 0 160.3,266.5 116.8,95.17 27.16 0 0 92.89,130 Z m -9,26.7 A 63.51,59.9 34.09 0 1 117,238.5 63.51,59.9 34.09 0 1 35.46,266.4 63.51,59.9 34.09 0 1 2.02,185 63.51,59.9 34.09 0 1 83.89,156.7 Z" />
        <path
           id="path19494"
           style="fill:#dadada;fill-opacity:1;fill-rule:evenodd;stroke-width:0.264598"
           d="M 72.41,141.1 A 88.51,93.21 35.36 0 0 -37.01,212.9 88.51,93.21 35.36 0 0 28.43,320.7 88.51,93.21 35.36 0 0 137.8,248.8 88.51,93.21 35.36 0 0 72.41,141.1 Z m -15.26,34.7 a 58.73,50.34 5.761 0 1 45.45,61 58.73,50.34 5.761 0 1 -69.5,37.2 58.73,50.34 5.761 0 1 -45.39,-60.8 58.73,50.34 5.761 0 1 69.44,-37.4 z" />
      </g>
    </g>
    <g
       id="spiral-close"
       transform="matrix(0.7204,0,0,0.7425,419.2,-279.1)"
       style="stroke-width:1.36731">
      <path
         id="path19482-5-4"
         style="fill:#ffffff;fill-opacity:1;fill-rule:evenodd;stroke-width:0.361888"
         d="M -16.59,559.3 A 145,155.1 0 0 0 -161.6,713.7 145,155.1 0 0 0 -16.59,869 145,155.1 0 0 0 128.4,713.7 145,155.1 0 0 0 -16.59,559.3 Z m 6.625,46.5 A 123.7,110.6 0 0 1 114,715.6 123.7,110.6 0 0 1 -9.965,826.3 123.7,110.6 0 0 1 -133.9,715.6 123.7,110.6 0 0 1 -9.965,605.8 Z" />
      <path
         id="path19482-8"
         style="fill:#c0c0c0;fill-opacity:1;fill-rule:evenodd;stroke-width:0.361806"
         d="M -16.63,521 A 188.4,193.1 0 0 0 -205.1,714.1 188.4,193.1 0 0 0 -16.63,907.2 188.4,193.1 0 0 0 171.8,714.1 188.4,193.1 0 0 0 -16.63,521 Z m 0.7,68.5 A 128.8,134.8 0 0 1 112.9,724.3 128.8,134.8 0 0 1 -15.93,859.7 128.8,134.8 0 0 1 -144.9,724.3 128.8,134.8 0 0 1 -15.93,589.5 Z" />
      <path
         id="path19482-5"
         style="fill:#ffffff;fill-opacity:1;fill-rule:evenodd;stroke-width:0.36183"
         d="M -16.63,529.4 A 185.8,185 0 0 0 -202.5,713.6 185.8,185 0 0 0 -16.63,898.9 185.8,185 0 0 0 169.2,713.6 185.8,185 0 0 0 -16.63,529.4 Z m 8.505,55.4 A 158.5,131.9 0 0 1 150.6,715.8 158.5,131.9 0 0 1 -8.125,847.9 158.5,131.9 0 0 1 -166.9,715.8 158.5,131.9 0 0 1 -8.125,584.8 Z" />
      <path
         id="path55762"
         style="fill:#c0c0c0;fill-opacity:1;fill-rule:evenodd;stroke-width:0.361817"
         d="M -16.58,428.6 A 316.7,285.5 0 0 0 -333.3,714.1 316.7,285.5 0 0 0 -16.58,999.6 316.7,285.5 0 0 0 300.1,714.1 316.7,285.5 0 0 0 -16.58,428.6 Z m 8.905,111.6 A 213.5,173.6 0 0 1 206,713.8 213.5,173.6 0 0 1 -7.675,887.7 213.5,173.6 0 0 1 -221.4,713.8 213.5,173.6 0 0 1 -7.675,540.2 Z" />
      <path
         id="path19482-4-4"
         style="fill:#7b7b7b;fill-opacity:1;fill-rule:evenodd;stroke-width:0.361852"
         d="M -16.28,437.7 A 276.2,276.2 0 0 0 -292.9,714 276.2,276.2 0 0 0 -16.28,990.5 276.2,276.2 0 0 0 259.7,714 276.2,276.2 0 0 0 -16.28,437.7 Z M -6.175,511 A 191.7,199.1 0 0 1 185.7,710.3 191.7,199.1 0 0 1 -6.175,909.5 191.7,199.1 0 0 1 -198.3,710.3 191.7,199.1 0 0 1 -6.175,511 Z" />
      <path
         id="path19482-8-0-9"
         style="fill:#dadada;fill-opacity:1;fill-rule:evenodd;stroke-width:0.36184"
         d="M 165.6,621.2 A 206.6,204.3 62.94 0 0 -110.9,530 206.6,204.3 62.94 0 0 -198.7,807.3 206.6,204.3 62.94 0 0 77.35,898.5 206.6,204.3 62.94 0 0 165.6,621.2 Z M 117,648.3 A 153.9,161.1 62.94 0 1 43.28,859.1 153.9,161.1 62.94 0 1 -169.8,794.8 153.9,161.1 62.94 0 1 -96.97,584.5 153.9,161.1 62.94 0 1 117,648.3 Z" />
      <path
         id="path19482-5-6"
         style="fill:#ffffff;fill-opacity:1;fill-rule:evenodd;stroke-width:0.361817"
         d="M -131.4,510.6 A 234,228.7 60.58 0 0 -216.2,826 234,228.7 60.58 0 0 98.19,917.8 234,228.7 60.58 0 0 182.4,601.2 234,228.7 60.58 0 0 -131.4,510.6 Z m 43.46,55.9 A 166.9,195.1 60.58 0 1 163.7,614.8 166.9,195.1 60.58 0 1 75.56,856.5 166.9,195.1 60.58 0 1 -176.7,806.8 166.9,195.1 60.58 0 1 -87.94,566.5 Z" />
    </g>
    <g
       id="spiral-closest"
       transform="matrix(1.104,0,0,1.126,-48.4,-916.8)"
       style="stroke-width:0.896995">
      <g
         id="g140134">
        <path
           id="path110689"
           style="fill:#dadada;fill-opacity:1;fill-rule:evenodd;stroke-width:0.237407"
           d="M 391.9,880.4 A 164.9,154.9 6.505 0 0 228,1015 164.9,154.9 6.505 0 0 372.9,1189 164.9,154.9 6.505 0 0 555.2,1055 164.9,154.9 6.505 0 0 410.4,881.5 164.9,154.9 6.505 0 0 391.9,880.4 Z m -6.3,94.6 a 95.47,85.62 21.47 0 1 44.8,12.4 95.47,85.62 21.47 0 1 41.9,118.6 95.47,85.62 21.47 0 1 -126.3,31 95.47,85.62 21.47 0 1 -42.1,-121 95.47,85.62 21.47 0 1 81.7,-41 z" />
        <path
           id="path104184-7"
           style="fill:#ffffff;fill-opacity:1;fill-rule:evenodd;stroke-width:0.237294"
           d="M 760,1075 A 390.8,338.5 37.21 0 0 365.9,688.8 390.8,338.5 37.21 0 0 16.1,1018 390.8,338.5 37.21 0 0 408.3,1404 390.8,338.5 37.21 0 0 760,1075 Z M 602.2,1062 A 247.4,206.9 65.05 0 1 401.2,1287 247.4,206.9 65.05 0 1 174.5,1030 247.4,206.9 65.05 0 1 373.3,806.4 247.4,206.9 65.05 0 1 602.2,1062 Z" />
        <path
           id="path92085"
           style="fill:#7b7b7b;fill-opacity:1;fill-rule:evenodd;stroke-width:0.237359"
           d="M 388,673.8 A 372.8,372.8 0 0 0 15.21,1046 372.8,372.8 0 0 0 388,1419 372.8,372.8 0 0 0 760.9,1046 372.8,372.8 0 0 0 388,673.8 Z m 18,39.6 A 342.4,316.2 62.84 0 1 699,906.1 342.4,316.2 62.84 0 1 573.8,1354 342.4,316.2 62.84 0 1 136.2,1194 342.4,316.2 62.84 0 1 261.3,745.7 342.4,316.2 62.84 0 1 406,713.4 Z" />
        <path
           id="path100021"
           style="fill:#dadada;fill-opacity:1;fill-rule:evenodd;stroke-width:0.237356"
           d="M 388,711 A 337.2,335 0 0 0 50.81,1047 337.2,335 0 0 0 388,1382 337.2,335 0 0 0 725.3,1047 337.2,335 0 0 0 388,711 Z m 0,175.6 A 185.4,159.7 0 0 1 573.6,1047 185.4,159.7 0 0 1 388,1206 185.4,159.7 0 0 1 202.8,1047 185.4,159.7 0 0 1 388,886.6 Z" />
        <path
           id="path118846-5"
           style="fill:#7b7b7b;fill-opacity:1;fill-rule:evenodd;stroke-width:0.237279"
           d="M 504.3,1345 A 320.9,296.5 60.74 0 0 667.5,945.8 320.9,296.5 60.74 0 0 271.6,748 320.9,296.5 60.74 0 0 109,1148 320.9,296.5 60.74 0 0 504.3,1345 Z m -35.6,-43 A 241.6,210.7 64.43 0 1 182.1,1149 241.6,210.7 64.43 0 1 292,852.4 241.6,210.7 64.43 0 1 578.3,1006 241.6,210.7 64.43 0 1 468.7,1302 Z" />
        <path
           id="path104184"
           style="fill:#a8a8a8;fill-opacity:1;fill-rule:evenodd;stroke-width:0.237263"
           d="M 499.2,784.9 A 265.1,299.2 62.15 0 0 117.6,968.6 265.1,299.2 62.15 0 0 277,1308 265.1,299.2 62.15 0 0 658.2,1125 265.1,299.2 62.15 0 0 499.2,784.9 Z m -47.7,110.9 a 159.5,192.5 89.43 0 1 118,204.2 159.5,192.5 89.43 0 1 -245.7,97 159.5,192.5 89.43 0 1 -117.3,-202.8 159.5,192.5 89.43 0 1 245,-98.4 z" />
        <path
           id="path118846"
           style="fill:#ffffff;fill-opacity:1;fill-rule:evenodd;stroke-width:0.237324"
           d="M 373.2,828.8 A 221.5,217.5 0 0 0 151.7,1047 221.5,217.5 0 0 0 373.2,1264 221.5,217.5 0 0 0 594.7,1047 221.5,217.5 0 0 0 373.2,828.8 Z m 14.2,35.8 A 157.2,163.9 0 0 1 544.5,1029 157.2,163.9 0 0 1 387.4,1193 157.2,163.9 0 0 1 230.2,1029 157.2,163.9 0 0 1 387.4,864.6 Z" />
      </g>
    </g>
  </g>
</svg>
