<svg version="1.1" id="svg140764" width="1920" height="720" viewBox="0 0 1920 1080">  
  <g id="layer1"> 
    <path
       id="path1015-1-7-4"
       style="fill:#ff0000;fill-rule:evenodd;stroke-width:1.00002"
       d="m 1403,189.5 a 167.8,169.6 0 0 0 -168,170.7 167.8,169.6 0 0 0 168,169.4 167.8,169.6 0 0 0 167,-169.4 167.8,169.6 0 0 0 -167,-170.7 z m 4,42.7 a 130.5,126.1 0 0 1 131,126.7 130.5,126.1 0 0 1 -131,124.3 130.5,126.1 0 0 1 -131,-124.3 130.5,126.1 0 0 1 131,-126.7 z" />
    <path
       id="path1015-1-7-4-9"
       style="fill:#090000;fill-opacity:1;fill-rule:evenodd;stroke-width:0.999606"
       d="m 1390,144.3 a 226.8,206.6 42.82 0 0 -197,138.1 226.8,206.6 42.82 0 0 152,279.8 226.8,206.6 42.82 0 0 267,-125.5 226.8,206.6 42.82 0 0 -151,-278.6 226.8,206.6 42.82 0 0 -71,-13.8 z m 19,59 a 145.3,150.7 70.3 0 1 134,133 145.3,150.7 70.3 0 1 -140,158.2 145.3,150.7 70.3 0 1 -160,-133.1 145.3,150.7 70.3 0 1 141,-158.1 145.3,150.7 70.3 0 1 25,0 z" />
    <path
       id="path1015-1-7-4-6"
       style="fill:#ff0000;fill-rule:evenodd;stroke-width:1.00023"
       d="m 1620,161.9 a 251.4,294.5 54.34 0 0 -394,17.6 251.4,294.5 54.34 0 0 -42,377.7 251.4,294.5 54.34 0 0 397,-17.5 251.4,294.5 54.34 0 0 39,-377.8 z m -104,62.7 a 170.7,175.3 4.425 0 1 54,135.6 170.7,175.3 4.425 0 1 -173,171.9 170.7,175.3 4.425 0 1 -166,-180.7 170.7,175.3 4.425 0 1 176,-170.7 170.7,175.3 4.425 0 1 109,43.9 z" />
    <path
       id="path1015-1-7-9"
       style="fill:#090000;fill-opacity:1;fill-rule:evenodd;stroke-width:1.0001"
       d="M 1404,35.08 A 366.5,323.9 0 0 0 1036,358.9 366.5,323.9 0 0 0 1404,682.7 366.5,323.9 0 0 0 1769,358.9 366.5,323.9 0 0 0 1404,35.08 Z m 8,61.5 A 222.8,237.2 0 0 1 1634,335.1 222.8,237.2 0 0 1 1412,572.3 222.8,237.2 0 0 1 1188,335.1 222.8,237.2 0 0 1 1412,96.58 Z" />
    <path
       id="path1015"
       style="fill:#ff0000;fill-rule:evenodd;stroke-width:1.00052"
       d="M 1443,-45.22 A 395.8,415.4 47.34 0 0 1307,-30.12 395.8,415.4 47.34 0 0 1005,471.9 395.8,415.4 47.34 0 0 1497,747.7 395.8,415.4 47.34 0 0 1798,246 395.8,415.4 47.34 0 0 1443,-45.22 Z m -53,154.42 a 276.6,234.4 65.53 0 1 190,112.9 276.6,234.4 65.53 0 1 -15,376.5 276.6,234.4 65.53 0 1 -343,-65.2 276.6,234.4 65.53 0 1 15,-375.3 276.6,234.4 65.53 0 1 153,-48.9 z" />
    <path
       id="path1015-1"
       style="fill:#090000;fill-opacity:1;fill-rule:evenodd;stroke-width:1.00002"
       d="M 1715,-75.32 A 517.2,535.8 37.66 0 0 982.7,57.68 517.2,535.8 37.66 0 0 1088,794.7 517.2,535.8 37.66 0 0 1822,660.1 517.2,535.8 37.66 0 0 1715,-75.32 Z m -105,111.7 a 358.3,351.7 31.94 0 1 88,495.72 358.3,351.7 31.94 0 1 -497,74.1 358.3,351.7 31.94 0 1 -88,-490.7 358.3,351.7 31.94 0 1 497,-79.12 z" />
    <path
       id="path1015-1-7"
       style="fill:#ff0000;fill-rule:evenodd;stroke-width:1.00037"
       d="M 1405,-291.2 A 596.1,651.6 0 0 0 807,358.9 596.1,651.6 0 0 0 1405,1009 596.1,651.6 0 0 0 1999,358.9 596.1,651.6 0 0 0 1405,-291.2 Z m -67,269.88 A 378,394.1 0 0 1 1715,370.2 378,394.1 0 0 1 1338,766.7 378,394.1 0 0 1 957.6,370.2 378,394.1 0 0 1 1338,-21.32 Z" />
    <path
       id="path1015-1-7-0"
       style="fill:#090000;fill-opacity:1;fill-rule:evenodd;stroke-width:1.00039"
       d="M 1719,-269.8 A 749.2,699.7 12.44 0 0 724.2,45.18 749.2,699.7 12.44 0 0 1087,988.7 749.2,699.7 12.44 0 0 2081,675.2 749.2,699.7 12.44 0 0 1719,-269.8 Z M 1580,-65.22 A 470.8,485.7 65.55 0 1 1796,564.8 470.8,485.7 65.55 0 1 1148,790.7 470.8,485.7 65.55 0 1 931.3,163.2 470.8,485.7 65.55 0 1 1580,-65.22 Z" />
    <path
       id="path1015-1-7-5-0"
       style="fill:#ff0000;fill-rule:evenodd;stroke-width:1.00046"
       d="M 1399,-431.7 A 862.6,790.6 0 0 0 538.5,358.9 862.6,790.6 0 0 0 1399,1149 862.6,790.6 0 0 0 2268,358.9 862.6,790.6 0 0 0 1399,-431.7 Z m -26,184.5 a 605.7,551.7 80.52 0 1 528,405.3 605.7,551.7 80.52 0 1 -320,767.6 605.7,551.7 80.52 0 1 -715,-371 605.7,551.7 80.52 0 1 318,-769.3 605.7,551.7 80.52 0 1 189,-32.6 z" />
    <path
       id="path1015-1-7-5"
       style="fill:#090000;fill-opacity:1;fill-rule:evenodd;stroke-width:1.00036"
       d="M 1723,-512 A 1036,920.3 5.093 0 0 418,58.98 1036,920.3 5.093 0 0 1087,1231 1036,920.3 5.093 0 0 2388,658.9 1036,920.3 5.093 0 0 1723,-512 Z m -108,193.2 a 660.8,698.7 9.055 0 1 454,502 660.8,698.7 9.055 0 1 -499,843.8 660.8,698.7 9.055 0 1 -794.3,-506.2 660.8,698.7 9.055 0 1 496.3,-845.9 660.8,698.7 9.055 0 1 343,6.3 z" />
    <path
       id="path1015-1-7-5-2"
       style="fill:#ff0000;fill-opacity:1;fill-rule:evenodd;stroke-width:1.00008"
       d="M 1668,-640 A 1187,1033 22.5 0 0 435.5,-311.3 1187,1033 22.5 0 0 754.3,1177 1187,1033 22.5 0 0 2368,1032 1187,1033 22.5 0 0 2054,-454.3 1187,1033 22.5 0 0 1668,-640 Z m 23,203.3 A 914.3,821.9 18.18 0 1 2304,630 914.3,821.9 18.18 0 1 1178,1126 914.3,821.9 18.18 0 1 567.3,58.98 914.3,821.9 18.18 0 1 1691,-436.7 Z" />
    <path
       id="path1015-1-7-5-2-2"
       style="fill:#090000;fill-opacity:1;fill-rule:evenodd;stroke-width:1.00053"
       d="M 2571,-96.62 A 1271,1253 89.75 0 0 1724,-867.2 1271,1253 89.75 0 0 190.8,32.58 1271,1253 89.75 0 0 1079,1586 1271,1253 89.75 0 0 2614,692.8 1271,1253 89.75 0 0 2648,233.4 1271,1253 89.75 0 0 2571,-96.62 Z M 2273,52.68 A 995,895.2 39.84 0 1 1807,1241 995,895.2 39.84 0 1 539.7,657.6 995,895.2 39.84 0 1 1007,-532.1 995,895.2 39.84 0 1 2273,52.68 Z" />
  </g>
</svg>
