<?xml version="1.0" encoding="UTF-8" standalone="no"?>
<!-- Created with Inkscape (http://www.inkscape.org/) -->

<svg
   width="594mm"
   height="420mm"
   viewBox="0 0 594 420"
   version="1.1"
   id="svg5"
   inkscape:version="1.1.2 (76b9e6a115, 2022-02-25)"
   sodipodi:docname="main-menu(optimized).svg"
   xmlns:inkscape="http://www.inkscape.org/namespaces/inkscape"
   xmlns:sodipodi="http://sodipodi.sourceforge.net/DTD/sodipodi-0.dtd"
   xmlns="http://www.w3.org/2000/svg"
   xmlns:svg="http://www.w3.org/2000/svg">
  <sodipodi:namedview
     id="namedview7"
     pagecolor="#ffffff"
     bordercolor="#111111"
     borderopacity="1"
     inkscape:pageshadow="0"
     inkscape:pageopacity="0"
     inkscape:pagecheckerboard="1"
     inkscape:document-units="px"
     showgrid="false"
     units="mm"
     width="1000px"
     inkscape:zoom="0.7409"
     inkscape:cx="313.8"
     inkscape:cy="238.2"
     inkscape:window-width="1920"
     inkscape:window-height="1052"
     inkscape:window-x="0"
     inkscape:window-y="0"
     inkscape:window-maximized="1"
     inkscape:current-layer="svg5"
     fit-margin-top="10"
     fit-margin-left="10"
     fit-margin-right="10"
     fit-margin-bottom="10"
     lock-margins="true" />
  <defs
     id="defs2" />
  <g
     inkscape:label="Layer 1"
     inkscape:groupmode="layer"
     id="layer1"
     transform="translate(-86.74,-46.37)" />
  <g
     aria-label="Projects"
     id="projects-link"
     style="font-size:50.4217px;line-height:1.25;font-family:Bangers;-inkscape-font-specification:'Bangers, Normal';letter-spacing:0px;word-spacing:0px;stroke-width:1.13074"
     transform="translate(-86.74,-45.31)">
    <path
       d="m 89.38,87.69 q 1.51,-6.8 2.88,-13.31 0.55,-2.72 1.16,-5.75 0.6,-3.02 1.15,-5.95 0.56,-2.92 1.06,-5.64 0.51,-2.73 0.86,-5 1.46,-0.45 2.88,-0.75 1.43,-0.35 2.83,-0.61 1.6,-0.25 2.9,-0.25 2.2,0 3.7,0.76 1.6,0.75 2.6,2.06 0.9,1.27 1.3,2.98 0.4,1.71 0.4,3.68 0,2.82 -1,5.45 -1,2.62 -2.8,4.68 -1.7,2.02 -4,3.23 -2.2,1.21 -4.6,1.21 h -0.6 q -0.38,1.72 -0.74,3.73 -0.35,2.02 -0.6,3.73 -0.35,2.02 -0.66,4.04 z M 103.4,56.53 q -0.5,3.33 -1.1,6.3 -0.5,2.98 -1.2,6.36 0.8,-0.2 1.7,-0.91 0.9,-0.76 1.7,-1.92 0.7,-1.21 1.2,-2.77 0.4,-1.56 0.4,-3.28 0,-1.86 -0.8,-2.82 -0.8,-0.96 -1.9,-0.96 z"
       id="projects-letter-p" />
    <path
       d="m 108.8,87.69 q 1.4,-6.7 2.7,-13.11 0.4,-2.72 1,-5.64 0.5,-2.98 1,-5.85 0.5,-2.93 0.9,-5.6 0.4,-2.72 0.7,-4.94 2.9,-0.91 6.2,-1.31 3.3,-0.46 6.6,-0.46 2,0 3.2,0.46 1.3,0.45 2,1.31 0.8,0.81 1.1,1.91 0.3,1.11 0.3,2.48 0,2.01 -0.7,3.98 -0.7,1.91 -1.9,3.68 -1.2,1.71 -2.7,3.18 -1.5,1.41 -3.3,2.32 0.9,2.01 1.9,4.43 1.1,2.37 2,4.54 1,2.52 2,5.04 l -7.8,2.73 q -1,-3.23 -1.8,-6.06 -0.3,-1.15 -0.7,-2.37 -0.4,-1.26 -0.7,-2.36 -0.3,-1.11 -0.5,-1.97 -0.2,-0.91 -0.2,-1.46 l -0.7,0.2 q -0.3,1.61 -0.7,3.78 -0.4,2.17 -0.8,4.18 -0.4,2.37 -0.9,4.79 z m 11.9,-21.88 q 1,-0.1 2.3,-0.81 1.4,-0.7 2.7,-1.66 1.2,-1.01 2.2,-2.07 0.9,-1.06 0.9,-1.86 0,-0.56 -0.4,-0.86 -0.3,-0.35 -1,-0.51 -0.6,-0.2 -1.4,-0.25 -0.7,-0 -1.5,-0 -0.6,0 -1.2,0 -0.5,0 -1,0 z"
       id="projects-letter-r" />
    <path
       d="m 159.3,60.36 q 0,4.14 -0.9,7.82 -0.9,3.63 -2.4,6.71 -1.4,3.02 -3.4,5.44 -1.9,2.37 -4,4.09 -2.1,1.66 -4.3,2.57 -2.2,0.85 -4.1,0.85 -1.7,0 -3.1,-0.6 -1.3,-0.66 -2.3,-1.87 -1,-1.26 -1.7,-3.17 -0.5,-1.97 -0.5,-4.69 0,-2.83 0.7,-5.95 0.7,-3.13 1.9,-6.2 1.2,-3.08 3,-5.85 1.8,-2.78 3.9,-4.89 2.1,-2.17 4.5,-3.43 2.4,-1.26 5.1,-1.26 2.2,0 3.7,0.95 1.5,0.91 2.3,2.42 0.9,1.47 1.2,3.33 0.4,1.87 0.4,3.73 z M 140.1,76.2 q 0,0.55 0.2,1.16 0.2,0.6 0.6,1.05 0.3,0.46 0.8,0.81 0.6,0.3 1.2,0.3 2.2,0 4,-1.56 1.8,-1.56 2.9,-3.83 1.2,-2.27 1.8,-4.84 0.7,-2.57 0.7,-4.69 0,-0.61 -0.1,-1.31 -0.1,-0.71 -0.3,-1.31 -0.2,-0.61 -0.8,-1.01 -0.4,-0.45 -1.2,-0.45 -1.6,0 -3,0.8 -1.3,0.81 -2.5,2.17 -1,1.31 -1.8,3.03 -0.8,1.66 -1.4,3.42 -0.6,1.72 -0.8,3.38 -0.3,1.67 -0.3,2.88 z"
       id="projects-letter-o" />
    <path
       d="m 170.3,74.23 q -0.4,2.22 -1.1,4.64 -0.7,2.37 -1.8,4.33 -1,1.92 -2.6,3.23 -1.5,1.26 -3.6,1.26 -1.4,0 -3.1,-0.6 -1.6,-0.61 -3.6,-2.07 l 3.5,-7.76 q 0.3,0.5 1,0.9 0.7,0.36 1.6,0.36 0.6,0 1,-1.01 0.5,-1.01 0.9,-2.32 0.3,-1.36 0.5,-2.78 0.2,-1.41 0.3,-2.26 1,-4.9 1.9,-9.74 0.8,-4.89 2,-9.73 2.3,-0.2 4.4,-0.6 2.2,-0.46 4.5,-1.06 -0.8,2.57 -1.6,5.85 -0.8,3.28 -1.6,6.7 -0.7,3.43 -1.4,6.76 -0.7,3.28 -1.2,5.9 z"
       id="projects-letter-j" />
    <path
       d="m 170.4,87.69 6.6,-35.85 15.9,-1.36 q -0.4,1.11 -0.6,2.27 -0.3,0.96 -0.5,2.02 -0.2,1.01 -0.4,1.81 -0.5,0.1 -1.4,0.1 -0.9,0 -2,0 -1.1,0 -2.2,0 -1,0 -1.8,0 l -1.8,9.03 q 1.6,-0.1 2.9,-0.15 1.1,-0 2.3,-0 1.2,0 1.7,-0 -0.2,1.41 -0.4,2.77 -0.1,1.36 -0.4,2.77 -0.5,0 -1.7,0.1 -1.1,0 -2.2,0 -1.3,0.1 -2.9,0.11 l -1.7,9.27 7.3,-1.16 -0.5,5.75 z"
       id="projects-letter-e" />
    <path
       d="m 208.7,76.8 q -1.2,2.77 -2.7,4.84 -1.5,2.02 -3.2,3.43 -1.6,1.36 -3.2,2.02 -1.7,0.65 -3.3,0.65 -1.5,0 -2.8,-0.7 -1.3,-0.71 -2.3,-2.12 -0.9,-1.41 -1.5,-3.48 -0.6,-2.07 -0.6,-4.84 0,-4.74 1.3,-9.33 1.3,-4.64 3.7,-8.32 2.4,-3.68 5.6,-5.9 3.3,-2.27 7.2,-2.27 1.2,0 2.3,0.51 1.1,0.5 1.9,1.41 0.9,0.91 1.3,2.22 0.5,1.31 0.5,2.92 0,0.31 0,0.66 0,0.3 0,0.65 l -6.6,1.77 q -0.6,-1.26 -1.5,-1.26 -0.8,0 -1.7,0.96 -0.8,0.9 -1.7,2.42 -0.8,1.46 -1.6,3.32 -0.9,1.82 -1.5,3.68 -0.6,1.87 -1,3.58 -0.3,1.67 -0.3,2.73 0,1.61 0.4,2.27 0.4,0.65 1.1,0.65 0.6,0 1.3,-0.4 0.7,-0.46 1.3,-1.11 0.6,-0.71 1.1,-1.56 0.5,-0.86 0.7,-1.72 z"
       id="projects-letter-c" />
    <path
       d="m 212.6,87.69 q 1.1,-5.54 2.2,-10.94 0.4,-2.27 0.9,-4.74 0.4,-2.47 0.8,-4.84 0.5,-2.42 0.8,-4.64 0.4,-2.27 0.6,-4.13 -1.2,-0.15 -2.4,-0.1 -1.1,0.1 -2.3,-0.31 0.1,-0.8 0.1,-1.86 0,-1.06 0,-2.12 0.1,-1.16 0.1,-2.47 1.3,0.1 2.6,0.15 1.4,0.1 2.7,0.1 2.5,0 4.9,-0.1 2.4,-0.15 4.4,-0.3 2.1,-0.2 4.1,-0.46 l -0.6,2.73 q -0.2,1.16 -0.5,2.37 -0.2,1.21 -0.4,2.06 -1.1,0.31 -2.3,0.46 -1.1,0.1 -2.2,0.3 -0.3,1.72 -0.7,3.83 -0.4,2.07 -0.8,4.34 -0.4,2.22 -0.7,4.54 -0.4,2.32 -0.7,4.43 -0.9,5 -1.6,10.34 z"
       id="projects-letter-t" />
    <path
       d="m 248.6,75.19 q 0,2.82 -1.1,5.14 -1.1,2.27 -2.9,3.93 -1.8,1.67 -4.4,2.58 -2.4,0.9 -5.3,0.9 -2,0 -4,-1.06 -2.1,-1.11 -3.9,-3.48 l 3.7,-7.31 q 0.4,0.66 1.1,1.37 0.7,0.65 1.5,1.15 0.9,0.51 1.8,0.86 0.9,0.3 1.6,0.3 0.6,0 1.3,-0.2 0.6,-0.2 1.2,-0.6 0.5,-0.41 0.8,-0.91 0.4,-0.55 0.4,-1.26 0,-1.21 -0.8,-2.22 -0.8,-1.06 -1.9,-1.97 -1.2,-0.95 -2.5,-1.91 -1.4,-0.96 -2.6,-2.02 -1.1,-1.06 -1.9,-2.37 -0.8,-1.31 -0.8,-2.92 0,-2.62 1.6,-4.89 1.5,-2.27 3.9,-3.89 2.3,-1.66 5.1,-2.62 2.8,-0.96 5.2,-0.96 1.4,0 2.6,0.36 1.2,0.3 2.1,1.06 0.9,0.7 1.4,1.81 0.5,1.11 0.5,2.77 0,0.71 -0.1,1.42 -0.1,0.7 -0.2,1.51 l -7.3,2.12 q 0.1,-0.41 0.1,-0.81 0.1,-0.4 0.1,-0.81 0,-1.51 -0.5,-2.17 -0.5,-0.7 -1.4,-0.7 -0.4,0 -1,0.3 -0.5,0.3 -1.2,0.81 -0.5,0.45 -0.9,1.11 -0.4,0.65 -0.4,1.41 0,1.21 0.6,2.02 0.7,0.8 1.8,1.51 1,0.7 2.1,1.46 1.2,0.71 2.2,1.87 1.1,1.16 1.7,2.92 0.7,1.72 0.7,4.39 z"
       id="projects-letter-s" />
  </g>
  <g
     aria-label="the DOJO"
     id="thedojo-link"
     style="font-size:34.7688px;line-height:1.25;font-family:Bangers;-inkscape-font-specification:'Bangers, Normal';letter-spacing:0px;word-spacing:0px;stroke-width:0.779716"
     transform="translate(-86.74,-45.31)">
    <path
       d="m 148.5,119.4 q 0.8,-3.8 1.5,-7.5 0.3,-1.6 0.6,-3.3 0.3,-1.7 0.6,-3.3 0.3,-1.7 0.5,-3.2 0.3,-1.6 0.4,-2.86 -0.8,-0.1 -1.6,-0.1 -0.8,0 -1.6,-0.21 0,-0.55 0,-1.28 0,-0.73 0.1,-1.46 0,-0.8 0,-1.71 1,0.1 1.9,0.11 0.9,0 1.8,0 1.7,0 3.4,-0.1 1.6,-0.1 3,-0.21 1.5,-0.14 2.8,-0.31 l -0.4,1.88 q -0.1,0.8 -0.3,1.63 -0.2,0.84 -0.3,1.43 -0.8,0.21 -1.6,0.31 -0.7,0.1 -1.5,0.21 -0.2,1.18 -0.5,2.68 -0.3,1.4 -0.6,3 -0.2,1.5 -0.5,3.1 -0.2,1.6 -0.4,3 -0.6,3.5 -1.1,7.2 z"
       id="thedojo-letter-t" />
    <path
       d="m 158.2,119.5 q 1,-4.9 1.9,-9.5 0.3,-2 0.7,-4.1 0.4,-2.2 0.7,-4.3 0.3,-2.05 0.6,-3.99 0.3,-1.99 0.5,-3.58 0.8,0 1.5,0.1 0.7,0 1.3,0.1 0.7,0 1.3,0.1 0.7,0 1.5,0 -0.6,2.47 -1.1,4.94 -0.6,2.49 -1.1,4.99 l 3.5,-0.4 q 0.4,-2.5 0.8,-4.77 0.4,-2.33 1,-4.8 0.8,-0.14 1.8,-0.2 1,-0.11 1.8,-0.18 0.8,-0.1 1.4,-0.1 0.6,-0.1 0.6,-0.1 -0.5,1.56 -0.9,3.44 -0.5,1.84 -0.9,3.88 -0.4,2 -0.8,4 -0.4,2.1 -0.7,3.9 -0.7,4.4 -1.4,9 l -5.4,0.7 q 0.4,-2.1 0.8,-4.1 0.3,-1.7 0.7,-3.5 0.4,-1.8 0.6,-3.1 l -3.4,0.3 q -0.3,1.4 -0.6,3.1 -0.3,1.7 -0.6,3.3 -0.4,1.9 -0.8,3.8 z"
       id="thedojo-letter-h" />
    <path
       d="m 173.5,119.4 4.6,-24.68 11,-0.94 q -0.3,0.77 -0.5,1.57 -0.1,0.66 -0.3,1.39 -0.1,0.69 -0.2,1.25 -0.4,0 -1.1,0.1 -0.6,0 -1.3,0 -0.7,0 -1.5,0 -0.7,0 -1.3,0 l -1.2,6.21 q 1.1,-0.1 2,-0.1 0.8,0 1.6,0 0.8,0 1.2,-0.1 -0.2,1 -0.3,2 -0.1,0.9 -0.3,1.9 -0.3,0 -1.1,0 -0.8,0 -1.6,0.1 -0.9,0 -2,0 l -1.2,6.4 5.1,-0.8 -0.3,4 z"
       id="thedojo-letter-e" />
    <path
       d="m 209.6,101.6 q 0,1.8 -0.5,3.9 -0.6,2 -1.5,4 -0.9,2 -2.3,3.9 -1.4,1.8 -3.1,3.2 -1.8,1.3 -3.9,2.1 -2,0.9 -4.3,0.9 -0.5,0 -1,-0.1 -0.5,0 -1,-0.1 1,-4.8 1.9,-9.3 0.3,-2 0.7,-4 0.4,-2.1 0.7,-4.1 0.4,-2.03 0.7,-3.87 0.3,-1.84 0.5,-3.34 1.5,-0.28 3.1,-0.52 1.5,-0.24 3.1,-0.24 1.9,0 3.2,0.59 1.3,0.59 2.1,1.63 0.8,1.04 1.2,2.43 0.4,1.42 0.4,2.92 z m -8.2,-2.67 q -0.4,2.07 -0.8,3.97 -0.4,1.8 -0.9,3.7 -0.4,2 -0.8,4 -0.4,2.1 -0.8,4.6 0.8,-0.6 1.6,-1.5 0.8,-1 1.5,-2.2 0.7,-1.3 1.3,-2.7 0.5,-1.4 1,-2.7 0.4,-1.3 0.6,-2.4 0.2,-1.2 0.2,-2 0,-1.3 -0.7,-2.04 -0.7,-0.73 -2.2,-0.73 z"
       id="thedojo-letter-d" />
    <path
       d="m 226.7,100.6 q 0,2.8 -0.6,5.4 -0.6,2.5 -1.6,4.6 -1,2.1 -2.4,3.8 -1.3,1.6 -2.8,2.8 -1.4,1.1 -2.9,1.8 -1.5,0.5 -2.9,0.5 -1.1,0 -2.1,-0.4 -0.9,-0.4 -1.6,-1.3 -0.7,-0.8 -1.1,-2.1 -0.4,-1.4 -0.4,-3.3 0,-1.9 0.5,-4.1 0.5,-2.1 1.3,-4.3 0.8,-2.1 2.1,-4 1.2,-1.91 2.6,-3.37 1.5,-1.49 3.2,-2.36 1.6,-0.87 3.4,-0.87 1.6,0 2.6,0.66 1.1,0.63 1.6,1.67 0.6,1.01 0.8,2.29 0.3,1.29 0.3,2.58 z m -13.2,10.9 q 0,0.4 0.1,0.8 0.2,0.4 0.4,0.7 0.2,0.4 0.6,0.6 0.4,0.2 0.8,0.2 1.5,0 2.8,-1.1 1.2,-1 2,-2.6 0.8,-1.6 1.2,-3.3 0.5,-1.8 0.5,-3.3 0,-0.4 -0.1,-0.9 -0.1,-0.5 -0.2,-0.9 -0.2,-0.4 -0.5,-0.7 -0.3,-0.3 -0.9,-0.3 -1.1,0 -2,0.6 -1,0.5 -1.7,1.5 -0.8,0.9 -1.3,2 -0.6,1.2 -1,2.4 -0.4,1.2 -0.6,2.3 -0.1,1.2 -0.1,2 z"
       id="thedojo-letter-o" />
    <path
       d="m 233.1,110.2 q -0.3,1.5 -0.7,3.2 -0.5,1.6 -1.3,2.9 -0.7,1.4 -1.8,2.3 -1,0.8 -2.5,0.8 -0.9,0 -2.1,-0.4 -1.1,-0.4 -2.5,-1.4 l 2.4,-5.4 q 0.2,0.4 0.7,0.7 0.5,0.2 1.1,0.2 0.4,0 0.7,-0.7 0.4,-0.7 0.6,-1.6 0.3,-0.9 0.4,-1.9 0.1,-1 0.2,-1.6 0.7,-3.3 1.3,-6.7 0.6,-3.34 1.4,-6.68 1.5,-0.14 3,-0.42 1.6,-0.31 3.1,-0.73 -0.5,1.78 -1.1,4.04 -0.6,2.26 -1.1,4.59 -0.5,2.4 -1,4.7 -0.4,2.3 -0.8,4.1 z"
       id="thedojo-letter-j" />
    <path
       d="m 252.3,100.6 q 0,2.8 -0.6,5.4 -0.6,2.5 -1.6,4.6 -1,2.1 -2.3,3.8 -1.4,1.6 -2.8,2.8 -1.5,1.1 -3,1.8 -1.5,0.5 -2.8,0.5 -1.2,0 -2.1,-0.4 -1,-0.4 -1.7,-1.3 -0.6,-0.8 -1.1,-2.1 -0.3,-1.4 -0.3,-3.3 0,-1.9 0.4,-4.1 0.5,-2.1 1.4,-4.3 0.8,-2.1 2,-4 1.2,-1.91 2.7,-3.37 1.4,-1.49 3.1,-2.36 1.7,-0.87 3.5,-0.87 1.6,0 2.6,0.66 1,0.63 1.6,1.67 0.6,1.01 0.8,2.29 0.2,1.29 0.2,2.58 z m -13.2,10.9 q 0,0.4 0.2,0.8 0.1,0.4 0.4,0.7 0.2,0.4 0.5,0.6 0.4,0.2 0.8,0.2 1.6,0 2.8,-1.1 1.2,-1 2,-2.6 0.8,-1.6 1.3,-3.3 0.4,-1.8 0.4,-3.3 0,-0.4 -0.1,-0.9 0,-0.5 -0.2,-0.9 -0.1,-0.4 -0.5,-0.7 -0.3,-0.3 -0.8,-0.3 -1.1,0 -2.1,0.6 -0.9,0.5 -1.7,1.5 -0.7,0.9 -1.3,2 -0.5,1.2 -0.9,2.4 -0.4,1.2 -0.6,2.3 -0.2,1.2 -0.2,2 z"
       id="thedojo-letter-o2" />
  </g>
  <g
     aria-label="about me"
     id="aboutme-link"
     style="font-size:27.6461px;line-height:1.25;font-family:'Odibee Sans';-inkscape-font-specification:'Odibee Sans, Normal';letter-spacing:0px;word-spacing:0px;stroke-width:0.619983"
     transform="translate(-86.74,-45.31)">
    <path
       d="m 178,143.7 q -0.9,0 -1.5,-0.6 -0.6,-0.6 -0.6,-1.4 v -4.2 q 0,-0.8 0.6,-1.4 0.6,-0.6 1.5,-0.6 h 2.1 q 0.5,0 0.7,-0.3 0.3,-0.3 0.3,-0.7 v -1 q 0,-0.4 -0.3,-0.7 -0.2,-0.3 -0.7,-0.3 h -3 l 0.6,-2.6 h 4 q 0.9,0 1.4,0.6 0.6,0.6 0.6,1.4 v 11.8 z m 1.5,-2.6 h 1.6 v -3 h -1.6 q -0.4,0 -0.7,0.3 -0.3,0.3 -0.3,0.7 v 1 q 0,0.4 0.3,0.7 0.3,0.3 0.7,0.3 z"
       id="aboutme-letter-a" />
    <path
       d="M 185.4,143.7 V 123.6 L 188,123 v 6.9 h 3.2 q 0.8,0 1.4,0.6 0.6,0.5 0.6,1.4 v 9.8 q 0,0.8 -0.6,1.4 -0.6,0.6 -1.4,0.6 z m 2.6,-2.6 h 1.6 q 0.4,0 0.7,-0.3 0.3,-0.3 0.3,-0.7 v -6.6 q 0,-0.4 -0.3,-0.7 -0.3,-0.3 -0.7,-0.3 H 188 Z"
       id="aboutme-letter-b" />
    <path
       d="m 196.8,143.7 q -0.8,0 -1.4,-0.6 -0.6,-0.6 -0.6,-1.4 v -9.8 q 0,-0.8 0.6,-1.4 0.6,-0.6 1.4,-0.6 h 3.8 q 0.8,0 1.4,0.6 0.6,0.6 0.6,1.4 v 9.8 q 0,0.8 -0.6,1.4 -0.6,0.6 -1.4,0.6 z m 1.6,-2.6 h 0.6 q 0.4,0 0.7,-0.3 0.3,-0.3 0.3,-0.7 v -6.6 q 0,-0.4 -0.3,-0.7 -0.3,-0.3 -0.7,-0.3 h -0.6 q -0.4,0 -0.7,0.3 -0.3,0.3 -0.3,0.7 v 6.6 q 0,0.4 0.3,0.7 0.3,0.3 0.7,0.3 z"
       id="aboutme-letter-o" />
    <path
       d="m 206.5,143.7 q -0.8,0 -1.4,-0.6 -0.6,-0.6 -0.6,-1.4 v -11.8 h 2.6 v 10.2 q 0,0.4 0.3,0.7 0.3,0.3 0.7,0.3 h 1.6 v -11.2 h 2.6 v 13.8 z"
       id="aboutme-letter-u" />
    <path
       d="m 214.3,143.7 v -20.1 l 2.6,-0.6 v 6.9 h 3.3 l -0.7,2.6 h -2.6 v 11.2 z"
       id="aboutme-letter-t" />
    <path
       d="m 226.1,143.7 v -13.8 h 11 q 0.9,0 1.4,0.6 0.6,0.6 0.6,1.4 v 11.8 h -2.6 v -10.2 q 0,-0.4 -0.3,-0.7 -0.3,-0.3 -0.7,-0.3 h -1.6 v 11.2 h -2.6 v -10.2 q 0,-0.4 -0.3,-0.7 -0.3,-0.3 -0.7,-0.3 h -1.6 v 11.2 z"
       id="aboutme-letter-m" />
    <path
       d="m 242.9,143.7 q -0.8,0 -1.4,-0.6 -0.6,-0.6 -0.6,-1.4 v -9.8 q 0,-0.9 0.6,-1.4 0.6,-0.6 1.4,-0.6 h 3.8 q 0.8,0 1.4,0.6 0.6,0.5 0.6,1.4 v 4.2 q 0,0.8 -0.6,1.4 -0.6,0.6 -1.4,0.6 h -3.2 v 2 q 0,0.4 0.3,0.7 0.3,0.3 0.7,0.3 h 3.6 l 0.6,2.6 z m 0.6,-8.2 h 1.6 q 0.4,0 0.7,-0.3 0.3,-0.3 0.3,-0.7 v -1 q 0,-0.4 -0.3,-0.7 -0.3,-0.3 -0.7,-0.3 h -0.6 q -0.4,0 -0.7,0.3 -0.3,0.3 -0.3,0.7 z"
       id="aboutme-letter-e" />
  </g>
  <path
     id="email-icon"
     style="fill:none;stroke:#000000;stroke-width:1.9531;stroke-linecap:butt;stroke-linejoin:miter;stroke-miterlimit:4;stroke-dasharray:none;stroke-opacity:1;paint-order:markers fill stroke"
     d="M 159.5,105.7 145.4,119 130.8,105.7 Z m -30.6,-0.2 h 32.5 v 19.8 h -32.5 z" />
</svg>
