<?xml version="1.0" encoding="UTF-8" standalone="no"?>
<!-- Created with Inkscape (http://www.inkscape.org/) -->

<svg
   width="635.92206"
   height="491.32504"
   viewBox="0 0 168.25439 129.99642"
   version="1.1"
   id="svg5"
   inkscape:version="1.1.2 (76b9e6a115, 2022-02-25)"
   sodipodi:docname="main-menu.svg"
   xmlns:inkscape="http://www.inkscape.org/namespaces/inkscape"
   xmlns:sodipodi="http://sodipodi.sourceforge.net/DTD/sodipodi-0.dtd"
   xmlns="http://www.w3.org/2000/svg"
   xmlns:svg="http://www.w3.org/2000/svg">
  <sodipodi:namedview
     id="namedview7"
     pagecolor="#ffffff"
     bordercolor="#111111"
     borderopacity="1"
     inkscape:pageshadow="0"
     inkscape:pageopacity="0"
     inkscape:pagecheckerboard="1"
     inkscape:document-units="px"
     showgrid="false"
     units="px"
     width="1000px"
     inkscape:zoom="0.74089703"
     inkscape:cx="277.36648"
     inkscape:cy="236.87502"
     inkscape:window-width="1920"
     inkscape:window-height="1052"
     inkscape:window-x="0"
     inkscape:window-y="0"
     inkscape:window-maximized="1"
     inkscape:current-layer="svg5"
     fit-margin-top="10"
     fit-margin-left="10"
     fit-margin-right="10"
     fit-margin-bottom="10"
     lock-margins="true" />
  <defs
     id="defs2" />
  <g
     inkscape:label="Layer 1"
     inkscape:groupmode="layer"
     id="layer1"
     transform="translate(-86.73567,-46.373243)" />
  <g
     aria-label="Projects"
     id="projects-link"
     style="font-size:50.4217px;line-height:1.25;font-family:Bangers;-inkscape-font-specification:'Bangers, Normal';letter-spacing:0px;word-spacing:0px;stroke-width:1.13074"
     transform="translate(-86.735669,-45.314898)">
    <path
       d="m 89.381503,87.692519 q 1.512651,-6.806929 2.874037,-13.311329 0.554639,-2.722771 1.159699,-5.748073 0.605061,-3.025302 1.159699,-5.949761 0.554639,-2.924458 1.058856,-5.64723 0.504217,-2.722772 0.857169,-4.991748 1.462229,-0.453796 2.874037,-0.756326 1.41181,-0.352952 2.87404,-0.60506 1.51265,-0.252109 2.82361,-0.252109 2.26898,0 3.78163,0.756326 1.56307,0.756325 2.52108,2.067289 0.95802,1.260543 1.36139,2.974881 0.40337,1.714337 0.40337,3.680784 0,2.823615 -1.05885,5.445543 -1.00844,2.621929 -2.7732,4.689218 -1.71433,2.016868 -3.98331,3.226989 -2.21855,1.210121 -4.6388,1.210121 h -0.55463 q -0.403378,1.714338 -0.75633,3.731206 -0.352952,2.016868 -0.605061,3.731205 -0.352952,2.016868 -0.655482,4.033736 z m 14.067657,-31.16061 q -0.55464,3.327832 -1.10928,6.302712 -0.55464,2.974881 -1.21012,6.353134 0.80675,-0.201686 1.66392,-0.90759 0.90759,-0.756326 1.66391,-1.916025 0.75633,-1.210121 1.21012,-2.773193 0.4538,-1.563073 0.4538,-3.277411 0,-1.865603 -0.85717,-2.823615 -0.80675,-0.958012 -1.81518,-0.958012 z"
       id="projects-letter-p" />
    <path
       d="m 108.84426,87.692519 q 1.36139,-6.706086 2.62193,-13.109642 0.4538,-2.722771 1.00844,-5.64723 0.55464,-2.97488 1.00843,-5.848917 0.50422,-2.924459 0.90759,-5.596809 0.4538,-2.722772 0.70591,-4.941326 2.87403,-0.907591 6.20186,-1.310965 3.32784,-0.453795 6.60525,-0.453795 1.96644,0 3.22699,0.453795 1.31096,0.453796 2.01686,1.310965 0.75633,0.806747 1.05886,1.916024 0.30253,1.109278 0.30253,2.470663 0,2.016868 -0.7059,3.983315 -0.70591,1.916024 -1.91603,3.680784 -1.1597,1.714338 -2.72277,3.176567 -1.51265,1.411807 -3.27741,2.319398 0.90759,2.016868 1.91602,4.43711 1.05886,2.369819 1.96645,4.537953 1.00843,2.521085 2.06729,5.04217 l -7.81536,2.722771 q -1.00844,-3.226988 -1.81518,-6.050604 -0.35296,-1.159699 -0.70591,-2.36982 -0.35295,-1.260542 -0.65548,-2.369819 -0.30253,-1.109278 -0.50422,-1.966447 -0.20168,-0.90759 -0.25211,-1.462229 l -0.65548,0.201687 q -0.30253,1.613494 -0.75632,3.781627 -0.40338,2.168133 -0.75633,4.185001 -0.45379,2.36982 -0.90759,4.790062 z m 11.8491,-21.883017 q 0.95802,-0.100844 2.3194,-0.806748 1.41181,-0.705903 2.67235,-1.663916 1.26055,-1.008434 2.16814,-2.067289 0.90759,-1.058856 0.90759,-1.865603 0,-0.554639 -0.35296,-0.857169 -0.35295,-0.352952 -1.00843,-0.504217 -0.60506,-0.201687 -1.36139,-0.252109 -0.75632,-0.05042 -1.56307,-0.05042 -0.55464,0 -1.1597,0.05042 -0.55464,0 -1.00843,0 z"
       id="projects-letter-r" />
    <path
       d="m 159.26588,60.363958 q 0,4.134579 -0.90759,7.815363 -0.85717,3.630363 -2.3194,6.706086 -1.46223,3.025302 -3.42867,5.445544 -1.91603,2.36982 -4.03374,4.084158 -2.11771,1.663916 -4.28585,2.571506 -2.16813,0.857169 -4.13457,0.857169 -1.66392,0 -3.02531,-0.60506 -1.36138,-0.655482 -2.36982,-1.865603 -1.00843,-1.260542 -1.61349,-3.176567 -0.55464,-1.966446 -0.55464,-4.689218 0,-2.823615 0.7059,-5.949761 0.70591,-3.126145 1.91603,-6.201869 1.21012,-3.075723 2.97488,-5.848917 1.76476,-2.773193 3.88247,-4.890905 2.11771,-2.168133 4.53795,-3.428675 2.42024,-1.260543 5.04217,-1.260543 2.26898,0 3.73121,0.958013 1.51265,0.90759 2.3194,2.420241 0.85717,1.462229 1.21012,3.327832 0.35295,1.865603 0.35295,3.731206 z m -19.16025,15.832414 q 0,0.554638 0.20169,1.159699 0.20169,0.60506 0.55464,1.058855 0.35295,0.453796 0.85717,0.806748 0.55464,0.30253 1.1597,0.30253 2.26897,0 4.03373,-1.563073 1.76476,-1.563073 2.92446,-3.832049 1.1597,-2.268976 1.76476,-4.840483 0.65548,-2.571507 0.65548,-4.689218 0,-0.605061 -0.10084,-1.310964 -0.0504,-0.705904 -0.30253,-1.310965 -0.20169,-0.60506 -0.7059,-1.008434 -0.4538,-0.453795 -1.26055,-0.453795 -1.61349,0 -2.97488,0.806747 -1.36138,0.806748 -2.47066,2.168133 -1.05886,1.310965 -1.8656,3.025302 -0.80675,1.663916 -1.41181,3.428676 -0.55464,1.714338 -0.80675,3.378254 -0.25211,1.663916 -0.25211,2.874037 z"
       id="projects-letter-o" />
    <path
       d="m 170.30814,74.229925 q -0.45379,2.218555 -1.10928,4.638797 -0.65548,2.36982 -1.76476,4.336266 -1.05885,1.916024 -2.62192,3.226989 -1.51266,1.260542 -3.63037,1.260542 -1.4118,0 -3.07572,-0.60506 -1.61349,-0.605061 -3.57994,-2.06729 l 3.4791,-7.764942 q 0.2521,0.504217 0.95801,0.907591 0.75632,0.352952 1.61349,0.352952 0.60506,0 1.05886,-1.008434 0.50422,-1.008434 0.85717,-2.319398 0.35295,-1.361386 0.55464,-2.773194 0.20168,-1.411807 0.30253,-2.268976 0.95801,-4.890905 1.81518,-9.731388 0.85717,-4.890905 2.01687,-9.731388 2.26897,-0.201687 4.43711,-0.605061 2.21855,-0.453795 4.4371,-1.058855 -0.75632,2.571506 -1.56307,5.848917 -0.80674,3.27741 -1.56307,6.706086 -0.75633,3.428675 -1.46223,6.756508 -0.65548,3.27741 -1.1597,5.899338 z"
       id="projects-letter-j" />
    <path
       d="m 170.35853,87.692519 6.60524,-35.849828 15.93326,-1.361386 q -0.35295,1.109277 -0.60506,2.268976 -0.25211,0.958013 -0.50422,2.016868 -0.20169,1.008434 -0.35295,1.815182 -0.50422,0.05042 -1.46223,0.100843 -0.90759,0 -1.96645,0.05042 -1.05885,0 -2.16813,0 -1.05886,0 -1.8656,0 l -1.76476,9.025484 q 1.56307,-0.100844 2.92446,-0.151265 1.10927,-0.05042 2.26897,-0.05042 1.1597,0 1.71434,-0.05042 -0.20169,1.411808 -0.40337,2.773194 -0.15127,1.361386 -0.40338,2.773193 -0.50421,0.05042 -1.66391,0.100844 -1.10928,0 -2.26898,0.05042 -1.31096,0.05042 -2.87404,0.100844 l -1.71433,9.277593 7.36156,-1.1597 -0.50421,5.748074 z"
       id="projects-letter-e" />
    <path
       d="m 208.679,76.801432 q -1.21012,2.773194 -2.72277,4.840483 -1.46223,2.016868 -3.12615,3.428676 -1.61349,1.361386 -3.27741,2.016868 -1.66391,0.655482 -3.22699,0.655482 -1.56307,0 -2.87403,-0.705904 -1.26055,-0.705904 -2.21856,-2.117711 -0.95801,-1.411808 -1.56307,-3.479098 -0.55464,-2.067289 -0.55464,-4.840483 0,-4.739639 1.31096,-9.328014 1.31097,-4.638796 3.68079,-8.319581 2.36982,-3.680784 5.59681,-5.899338 3.27741,-2.268977 7.2103,-2.268977 1.21012,0 2.3194,0.504217 1.10928,0.504217 1.91602,1.411808 0.80675,0.90759 1.26054,2.218554 0.50422,1.310965 0.50422,2.924459 0,0.30253 0,0.655482 0,0.30253 -0.0504,0.655482 l -6.60524,1.76476 q -0.60506,-1.260543 -1.41181,-1.260543 -0.80675,0 -1.71434,0.958013 -0.85717,0.90759 -1.71434,2.420241 -0.85716,1.462229 -1.66391,3.327832 -0.80675,1.815181 -1.41181,3.680784 -0.60506,1.865603 -1.00843,3.579941 -0.35296,1.663916 -0.35296,2.722772 0,1.613494 0.40338,2.268976 0.45379,0.655482 1.1597,0.655482 0.55464,0 1.26054,-0.403373 0.7059,-0.453796 1.31096,-1.109278 0.60506,-0.705903 1.10928,-1.563072 0.50422,-0.857169 0.70591,-1.714338 z"
       id="projects-letter-c" />
    <path
       d="m 212.56144,87.692519 q 1.1597,-5.546387 2.21856,-10.941509 0.45379,-2.268976 0.90759,-4.739639 0.45379,-2.470664 0.85717,-4.840484 0.45379,-2.420241 0.75632,-4.638796 0.35296,-2.268976 0.60506,-4.134579 -1.1597,-0.151265 -2.36982,-0.100844 -1.15969,0.05042 -2.31939,-0.30253 0.0504,-0.806747 0.0504,-1.865603 0,-1.058855 0.0504,-2.117711 0.0504,-1.159699 0.10084,-2.470663 1.31097,0.100843 2.62193,0.151265 1.31097,0.05042 2.62193,0.05042 2.57151,0 4.94133,-0.100843 2.42024,-0.151265 4.43711,-0.30253 2.06729,-0.201687 4.03373,-0.453795 L 231.52,53.60745 q -0.25211,1.159699 -0.50421,2.36982 -0.20169,1.210121 -0.40338,2.06729 -1.10928,0.30253 -2.26897,0.453795 -1.10928,0.100844 -2.21856,0.30253 -0.35295,1.714338 -0.75632,3.83205 -0.40338,2.067289 -0.80675,4.336266 -0.35295,2.218554 -0.70591,4.537953 -0.35295,2.319398 -0.7059,4.437109 -0.80675,4.991748 -1.51265,10.336449 z"
       id="projects-letter-t" />
    <path
       d="m 248.61293,75.187938 q 0,2.823615 -1.10928,5.143013 -1.05885,2.268977 -2.92446,3.932893 -1.81518,1.663916 -4.33626,2.571506 -2.47067,0.907591 -5.3447,0.907591 -2.01687,0 -4.03374,-1.058856 -2.01687,-1.109277 -3.88247,-3.479097 l 3.7312,-7.311147 q 0.35296,0.655483 1.05886,1.361386 0.7059,0.655482 1.56307,1.159699 0.90759,0.504217 1.76476,0.857169 0.90759,0.302531 1.6135,0.302531 0.60506,0 1.26054,-0.201687 0.65548,-0.201687 1.21012,-0.605061 0.55464,-0.403373 0.85717,-0.90759 0.35295,-0.554639 0.35295,-1.260543 0,-1.210121 -0.80675,-2.218555 -0.75632,-1.058855 -1.91602,-1.966446 -1.1597,-0.958012 -2.52109,-1.916024 -1.36138,-0.958013 -2.52108,-2.016868 -1.10928,-1.058856 -1.91603,-2.36982 -0.80674,-1.310964 -0.80674,-2.924459 0,-2.621928 1.56307,-4.890905 1.56307,-2.268976 3.88247,-3.882471 2.36982,-1.663916 5.14301,-2.621928 2.7732,-0.958012 5.24386,-0.958012 1.36139,0 2.57151,0.352952 1.21012,0.30253 2.06729,1.058855 0.90759,0.705904 1.41181,1.815182 0.55463,1.109277 0.55463,2.773193 0,0.705904 -0.15126,1.411808 -0.10084,0.705903 -0.20169,1.512651 l -7.31114,2.117711 q 0.10084,-0.403374 0.15126,-0.806747 0.10084,-0.403374 0.10084,-0.806747 0,-1.512651 -0.55463,-2.168133 -0.50422,-0.705904 -1.36139,-0.705904 -0.40337,0 -1.00843,0.30253 -0.55464,0.30253 -1.1597,0.806747 -0.55464,0.453795 -0.95802,1.109278 -0.40337,0.655482 -0.40337,1.411807 0,1.210121 0.65548,2.016868 0.70591,0.806747 1.71434,1.512651 1.00843,0.705904 2.16813,1.462229 1.21012,0.705904 2.21856,1.865603 1.00843,1.159699 1.66391,2.924459 0.70591,1.714338 0.70591,4.386688 z"
       id="projects-letter-s" />
  </g>
  <g
     aria-label="the DOJO"
     id="thedojo-link"
     style="font-size:34.7688px;line-height:1.25;font-family:Bangers;-inkscape-font-specification:'Bangers, Normal';letter-spacing:0px;word-spacing:0px;stroke-width:0.779716"
     transform="translate(-86.735669,-45.314898)">
    <path
       d="m 148.4552,119.44132 q 0.79968,-3.82457 1.52982,-7.54483 0.31292,-1.5646 0.62584,-3.26827 0.31292,-1.70367 0.59107,-3.3378 0.31292,-1.66891 0.52153,-3.19873 0.24338,-1.5646 0.41723,-2.851046 -0.79968,-0.104306 -1.63413,-0.06954 -0.79969,0.03477 -1.59937,-0.208613 0.0348,-0.556301 0.0348,-1.286446 0,-0.730144 0.0348,-1.460289 0.0348,-0.799683 0.0695,-1.703671 0.90398,0.06954 1.80797,0.104306 0.90399,0.03477 1.80798,0.03477 1.77321,0 3.40734,-0.06954 1.66891,-0.104306 3.05966,-0.208613 1.42552,-0.139075 2.7815,-0.312919 l -0.38246,1.877515 q -0.17384,0.799683 -0.34768,1.634134 -0.13908,0.834451 -0.27815,1.425521 -0.76492,0.208612 -1.5646,0.312919 -0.76491,0.06954 -1.52983,0.208613 -0.24338,1.182139 -0.52153,2.642429 -0.27815,1.42552 -0.5563,2.99012 -0.24338,1.52983 -0.48676,3.12919 -0.24338,1.59937 -0.48677,3.05966 -0.5563,3.44211 -1.04306,7.1276 z"
       id="thedojo-letter-t" />
    <path
       d="m 158.19044,119.47609 q 0.97353,-4.86764 1.87752,-9.49189 0.34769,-1.98182 0.73014,-4.10272 0.38246,-2.15566 0.69538,-4.24179 0.34769,-2.086127 0.62584,-4.033179 0.31292,-1.981822 0.48676,-3.581187 0.79968,0.03477 1.46029,0.104307 0.69538,0.03477 1.35598,0.06954 0.66061,0.03477 1.32122,0.06954 0.69537,0 1.49506,0 -0.59107,2.468585 -1.18214,4.937169 -0.5563,2.46859 -1.04307,4.97194 l 3.44211,-0.38245 q 0.48677,-2.4686 0.86922,-4.763334 0.38246,-2.329509 1.0083,-4.798094 0.79968,-0.139075 1.77321,-0.208613 0.97352,-0.104306 1.80798,-0.173844 0.83445,-0.06954 1.39075,-0.104306 0.59107,-0.06954 0.59107,-0.06954 -0.48677,1.564596 -0.93876,3.442111 -0.41723,1.842747 -0.83445,3.85933 -0.41723,1.98183 -0.79968,4.03318 -0.38246,2.05136 -0.69538,3.89411 -0.76491,4.41564 -1.42552,9.03989 l -5.42393,0.62584 q 0.45199,-2.08613 0.79968,-4.06795 0.34769,-1.66891 0.69537,-3.47688 0.38246,-1.80798 0.59107,-3.09443 l -3.37257,0.31292 q -0.24338,1.32122 -0.59107,3.05966 -0.31292,1.73844 -0.59107,3.30303 -0.38246,1.87752 -0.76491,3.75503 z"
       id="thedojo-letter-h" />
    <path
       d="m 173.52348,119.44132 4.55471,-24.72062 10.98694,-0.938757 q -0.24338,0.764913 -0.41722,1.564596 -0.17385,0.660607 -0.34769,1.390752 -0.13907,0.695376 -0.24338,1.251676 -0.34769,0.03477 -1.0083,0.06954 -0.62583,0 -1.35598,0.03477 -0.73014,0 -1.49506,0 -0.73014,0 -1.28644,0 l -1.21691,6.223613 q 1.07783,-0.0695 2.01659,-0.10431 0.76491,-0.0348 1.5646,-0.0348 0.79968,0 1.18213,-0.0348 -0.13907,0.97353 -0.27815,1.91229 -0.1043,0.93876 -0.27815,1.91228 -0.34768,0.0348 -1.14737,0.0695 -0.76491,0 -1.56459,0.0348 -0.90399,0.0348 -1.98182,0.0695 l -1.18214,6.39746 5.07624,-0.79969 -0.34769,3.96365 z"
       id="thedojo-letter-e" />
    <path
       d="m 209.5787,101.63969 q 0,1.80798 -0.52153,3.85934 -0.52153,2.01659 -1.46029,4.03318 -0.93875,1.98182 -2.32951,3.82457 -1.35598,1.80797 -3.09442,3.19873 -1.73844,1.35598 -3.82457,2.19043 -2.05136,0.83445 -4.38087,0.83445 -0.48676,0 -0.97352,-0.0695 -0.48677,-0.0348 -0.97353,-0.1043 0.93876,-4.7981 1.84275,-9.35281 0.34769,-1.91228 0.73014,-3.96364 0.38246,-2.08613 0.73015,-4.10272 0.34768,-2.016591 0.6606,-3.859337 0.34769,-1.842747 0.5563,-3.337805 1.49506,-0.27815 3.02489,-0.521532 1.52983,-0.243382 3.12919,-0.243382 1.87752,0 3.16396,0.59107 1.32122,0.59107 2.1209,1.634134 0.83445,1.043063 1.21691,2.433815 0.38245,1.390757 0.38245,2.955347 z m -8.20543,-2.711965 q -0.38246,2.051355 -0.79968,3.928875 -0.41723,1.87751 -0.83446,3.7898 -0.41722,1.91228 -0.83445,3.99841 -0.41722,2.08613 -0.79968,4.55471 0.83445,-0.5563 1.59937,-1.49506 0.79968,-0.97352 1.49505,-2.2252 0.69538,-1.25168 1.25168,-2.64243 0.59107,-1.39075 1.0083,-2.71196 0.41722,-1.32122 0.62583,-2.46859 0.24339,-1.14737 0.24339,-1.98182 0,-1.28645 -0.73015,-2.01659 -0.69537,-0.730145 -2.2252,-0.730145 z"
       id="thedojo-letter-d" />
    <path
       d="m 226.68495,100.59663 q 0,2.85104 -0.62584,5.38916 -0.59107,2.50335 -1.59936,4.62425 -1.0083,2.08613 -2.36428,3.75503 -1.32121,1.63414 -2.7815,2.81627 -1.46029,1.14737 -2.95535,1.77321 -1.49506,0.59107 -2.85104,0.59107 -1.14737,0 -2.08613,-0.41722 -0.93876,-0.452 -1.63413,-1.28645 -0.69538,-0.86922 -1.11261,-2.19043 -0.38245,-1.35599 -0.38245,-3.2335 0,-1.94705 0.48676,-4.10272 0.48676,-2.15566 1.32121,-4.27656 0.83446,-2.1209 2.05136,-4.03318 1.21691,-1.912286 2.6772,-3.372576 1.46029,-1.495058 3.12919,-2.364278 1.66891,-0.86922 3.47688,-0.86922 1.5646,0 2.57289,0.660607 1.04307,0.625839 1.59937,1.668903 0.59107,1.008295 0.83445,2.29474 0.24338,1.286446 0.24338,2.572894 z m -13.21214,10.9174 q 0,0.38246 0.13907,0.79968 0.13908,0.41723 0.38246,0.73015 0.24338,0.31292 0.59107,0.5563 0.38246,0.20861 0.79968,0.20861 1.5646,0 2.78151,-1.07783 1.2169,-1.07783 2.01659,-2.64243 0.79968,-1.5646 1.2169,-3.33781 0.452,-1.7732 0.452,-3.23349 0,-0.41723 -0.0695,-0.90399 -0.0348,-0.48677 -0.20861,-0.90399 -0.13908,-0.41723 -0.48677,-0.69538 -0.31291,-0.31292 -0.86922,-0.31292 -1.1126,0 -2.05135,0.5563 -0.93876,0.55631 -1.70368,1.49506 -0.73014,0.90399 -1.28644,2.08613 -0.5563,1.14737 -0.97353,2.36428 -0.38245,1.18214 -0.5563,2.32951 -0.17384,1.14737 -0.17384,1.98182 z"
       id="thedojo-letter-o" />
    <path
       d="m 233.1171,110.15805 q -0.31292,1.52982 -0.76491,3.19873 -0.452,1.63413 -1.21691,2.99011 -0.73014,1.32122 -1.80798,2.22521 -1.04306,0.86922 -2.50335,0.86922 -0.97353,0 -2.1209,-0.41723 -1.1126,-0.41722 -2.46858,-1.42552 l 2.39904,-5.3544 q 0.17385,0.34769 0.66061,0.62584 0.52153,0.24338 1.1126,0.24338 0.41723,0 0.73015,-0.69537 0.34769,-0.69538 0.59107,-1.59937 0.24338,-0.93875 0.38245,-1.91228 0.13908,-0.97353 0.20862,-1.5646 0.6606,-3.37257 1.25167,-6.71037 0.59107,-3.372577 1.39076,-6.710382 1.56459,-0.139075 3.05965,-0.417226 1.52983,-0.312919 3.05965,-0.730144 -0.52153,1.773208 -1.07783,4.03318 -0.5563,2.259972 -1.07783,4.624252 -0.52153,2.36428 -1.0083,4.65902 -0.45199,2.25997 -0.79968,4.06795 z"
       id="thedojo-letter-j" />
    <path
       d="m 252.34422,100.59663 q 0,2.85104 -0.62584,5.38916 -0.59107,2.50335 -1.59936,4.62425 -1.0083,2.08613 -2.36428,3.75503 -1.32121,1.63414 -2.7815,2.81627 -1.46029,1.14737 -2.95535,1.77321 -1.49506,0.59107 -2.85104,0.59107 -1.14737,0 -2.08613,-0.41722 -0.93876,-0.452 -1.63413,-1.28645 -0.69538,-0.86922 -1.11261,-2.19043 -0.38245,-1.35599 -0.38245,-3.2335 0,-1.94705 0.48676,-4.10272 0.48676,-2.15566 1.32122,-4.27656 0.83445,-2.1209 2.05135,-4.03318 1.21691,-1.912286 2.6772,-3.372576 1.46029,-1.495058 3.12919,-2.364278 1.66891,-0.86922 3.47688,-0.86922 1.5646,0 2.5729,0.660607 1.04306,0.625839 1.59936,1.668903 0.59107,1.008295 0.83445,2.29474 0.24338,1.286446 0.24338,2.572894 z m -13.21214,10.9174 q 0,0.38246 0.13907,0.79968 0.13908,0.41723 0.38246,0.73015 0.24338,0.31292 0.59107,0.5563 0.38246,0.20861 0.79968,0.20861 1.5646,0 2.78151,-1.07783 1.2169,-1.07783 2.01659,-2.64243 0.79968,-1.5646 1.21691,-3.33781 0.45199,-1.7732 0.45199,-3.23349 0,-0.41723 -0.0695,-0.90399 -0.0348,-0.48677 -0.20861,-0.90399 -0.13908,-0.41723 -0.48676,-0.69538 -0.31292,-0.31292 -0.86922,-0.31292 -1.11261,0 -2.05136,0.5563 -0.93876,0.55631 -1.70367,1.49506 -0.73015,0.90399 -1.28645,2.08613 -0.5563,1.14737 -0.97353,2.36428 -0.38245,1.18214 -0.5563,2.32951 -0.17384,1.14737 -0.17384,1.98182 z"
       id="thedojo-letter-o2" />
  </g>
  <g
     aria-label="about me"
     id="aboutme-link"
     style="font-size:27.6461px;line-height:1.25;font-family:'Odibee Sans';-inkscape-font-specification:'Odibee Sans, Normal';letter-spacing:0px;word-spacing:0px;stroke-width:0.619983"
     transform="translate(-86.735669,-45.314898)">
    <path
       d="m 177.96222,143.70877 q -0.82938,0 -1.4376,-0.58057 -0.58056,-0.58057 -0.58056,-1.43759 v -4.17457 q 0,-0.82938 0.58056,-1.40995 0.60822,-0.60821 1.4376,-0.60821 h 2.1564 q 0.44233,0 0.71879,-0.27646 0.30411,-0.30411 0.30411,-0.7188 v -1.02291 q 0,-0.41469 -0.30411,-0.69115 -0.27646,-0.30411 -0.71879,-0.30411 h -2.98578 l 0.58057,-2.59873 h 4.00868 q 0.82938,0 1.40995,0.60822 0.60821,0.58056 0.60821,1.40995 v 11.80488 z m 1.57583,-2.59873 h 1.60347 v -3.01343 h -1.60347 q -0.41469,0 -0.7188,0.30411 -0.27646,0.27646 -0.27646,0.69115 v 1.02291 q 0,0.41469 0.27646,0.7188 0.30411,0.27646 0.7188,0.27646 z"
       id="aboutme-letter-a" />
    <path
       d="m 185.39899,143.70877 v -20.15401 l 2.59874,-0.58056 v 6.91152 h 3.1793 q 0.82938,0 1.40995,0.58057 0.60821,0.58057 0.60821,1.4376 v 9.78672 q 0,0.82938 -0.60821,1.43759 -0.58057,0.58057 -1.40995,0.58057 z m 2.59874,-2.59873 h 1.57583 q 0.41469,0 0.71879,-0.27646 0.30411,-0.30411 0.30411,-0.7188 v -6.63507 q 0,-0.41469 -0.30411,-0.69115 -0.3041,-0.30411 -0.71879,-0.30411 h -1.57583 z"
       id="aboutme-letter-b" />
    <path
       d="m 196.8168,143.70877 q -0.85703,0 -1.4376,-0.58057 -0.58056,-0.60821 -0.58056,-1.43759 v -9.78672 q 0,-0.82939 0.58056,-1.40995 0.58057,-0.60822 1.4376,-0.60822 h 3.75987 q 0.82938,0 1.40995,0.60822 0.58057,0.58056 0.58057,1.40995 v 9.78672 q 0,0.82938 -0.58057,1.43759 -0.58057,0.58057 -1.40995,0.58057 z m 1.57583,-2.59873 h 0.58057 q 0.41469,0 0.71879,-0.27646 0.30411,-0.30411 0.30411,-0.7188 v -6.63507 q 0,-0.41469 -0.30411,-0.69115 -0.3041,-0.30411 -0.71879,-0.30411 h -0.58057 q -0.41469,0 -0.7188,0.30411 -0.27646,0.27646 -0.27646,0.69115 v 6.63507 q 0,0.41469 0.27646,0.7188 0.30411,0.27646 0.7188,0.27646 z"
       id="aboutme-letter-o" />
    <path
       d="m 206.54819,143.70877 q -0.85703,0 -1.4376,-0.58057 -0.58056,-0.58057 -0.58056,-1.43759 v -11.80489 h 2.59873 v 10.22906 q 0,0.38704 0.30411,0.69115 0.3041,0.30411 0.69115,0.30411 h 1.60347 v -11.22432 h 2.59874 v 13.82305 z"
       id="aboutme-letter-u" />
    <path
       d="m 214.26143,143.70877 v -20.12636 l 2.59874,-0.58057 v 6.88388 h 3.28988 l -0.60821,2.59873 h -2.68167 v 11.22432 z"
       id="aboutme-letter-t" />
    <path
       d="m 226.1492,143.70877 v -13.82305 h 10.9755 q 0.82939,0 1.40995,0.60822 0.58057,0.58056 0.58057,1.40995 v 11.80488 h -2.57108 v -10.22906 q 0,-0.41469 -0.30411,-0.69115 -0.30411,-0.30411 -0.7188,-0.30411 h -1.57583 v 11.22432 h -2.59873 v -10.22906 q 0,-0.41469 -0.30411,-0.69115 -0.30411,-0.30411 -0.7188,-0.30411 h -1.57582 v 11.22432 z"
       id="aboutme-letter-m" />
    <path
       d="m 242.90267,143.70877 q -0.82939,0 -1.4376,-0.58057 -0.58057,-0.60821 -0.58057,-1.43759 v -9.81437 q 0,-0.82938 0.58057,-1.40995 0.60821,-0.58057 1.4376,-0.58057 h 3.75986 q 0.85703,0 1.4376,0.58057 0.58057,0.58057 0.58057,1.40995 v 4.20221 q 0,0.82938 -0.58057,1.43759 -0.58057,0.58057 -1.4376,0.58057 h -3.1793 v 2.01817 q 0,0.41469 0.27646,0.7188 0.30411,0.27646 0.74645,0.27646 h 3.59399 l 0.58057,2.59873 z m 0.58056,-8.21089 h 1.60348 q 0.41469,0 0.69115,-0.27646 0.30411,-0.30411 0.30411,-0.7188 v -1.02291 q 0,-0.41469 -0.30411,-0.69115 -0.27646,-0.30411 -0.69115,-0.30411 h -0.58057 q -0.44234,0 -0.74645,0.30411 -0.27646,0.27646 -0.27646,0.69115 z"
       id="aboutme-letter-e" />
  </g>
  <path
     id="email-icon"
     style="fill:none;stroke:#000000;stroke-width:1.9531;stroke-linecap:butt;stroke-linejoin:miter;stroke-miterlimit:4;stroke-dasharray:none;stroke-opacity:1;paint-order:markers fill stroke"
     d="m 159.51406,105.72074 -14.08699,13.23736 -14.60213,-13.23736 z m -30.60086,-0.23845 h 32.52606 V 125.3157 H 128.9132 Z" />
</svg>
