<?xml version="1.0" encoding="UTF-8" standalone="no"?>
<!-- Created with Inkscape (http://www.inkscape.org/) -->

<svg
   width="1870"
   height="1797"
   viewBox="0 0 494.9 475.6"
   version="1.1"
   id="svg144854"
   inkscape:version="1.1.2 (08b2f3d93c, 2022-04-05)"
   sodipodi:docname="testRings.svg"
   xmlns:inkscape="http://www.inkscape.org/namespaces/inkscape"
   xmlns:sodipodi="http://sodipodi.sourceforge.net/DTD/sodipodi-0.dtd"
   xmlns="http://www.w3.org/2000/svg"
   xmlns:svg="http://www.w3.org/2000/svg">
  <sodipodi:namedview
     id="namedview144856"
     pagecolor="#ffffff"
     bordercolor="#111111"
     borderopacity="1"
     inkscape:pageshadow="0"
     inkscape:pageopacity="0"
     inkscape:pagecheckerboard="1"
     inkscape:document-units="px"
     showgrid="false"
     lock-margins="true"
     fit-margin-top="400"
     fit-margin-left="400"
     fit-margin-right="400"
     fit-margin-bottom="400"
     inkscape:zoom="0.2265"
     inkscape:cx="1398"
     inkscape:cy="1477"
     inkscape:window-width="1920"
     inkscape:window-height="1052"
     inkscape:window-x="0"
     inkscape:window-y="0"
     inkscape:window-maximized="1"
     inkscape:current-layer="layer1"
     units="px"
     inkscape:snap-global="false" />
  <defs
     id="defs144851" />
  <g
     inkscape:label="Layer 1"
     inkscape:groupmode="layer"
     id="layer1"
     transform="translate(129.1,618.3)">
    <path
       id="path141427"
       style="fill:#ff9494;fill-opacity:1;fill-rule:evenodd;stroke-width:0.264542"
       d="m 18.08,-522.8 a 39.77,40.93 30.31 0 0 -36.44,20.6 39.77,40.93 30.31 0 0 13.695,55.4 39.77,40.93 30.31 0 0 55.045,-15.2 39.77,40.93 30.31 0 0 -13.7,-55.5 39.77,40.93 30.31 0 0 -18.6,-5.3 z m -2,23.7 a 19.98,16.95 0 0 1 19.9,17 19.98,16.95 0 0 1 -19.9,17 19.98,16.95 0 0 1 -20.045,-17 19.98,16.95 0 0 1 20.045,-17 z" />
    <path
       id="path141427-8"
       style="fill:#ff9494;fill-opacity:1;fill-rule:evenodd;stroke-width:0.264569"
       d="m 61.28,-478.7 a 45.96,44.78 53.53 0 0 -22,-42 45.96,44.78 53.53 0 0 -62.04,14.1 45.96,44.78 53.53 0 0 15.395,62.9 45.96,44.78 53.53 0 0 62.245,-14.1 45.96,44.78 53.53 0 0 6.4,-20.9 z m -26.4,-3 a 18.87,22.7 1.41 0 1 -19.4,22.2 18.87,22.7 1.41 0 1 -18.365,-23.1 18.87,22.7 1.41 0 1 19.465,-22.2 18.87,22.7 1.41 0 1 18.3,23.1 z" />
    <path
       id="path141277-2"
       style="fill:#ff5656;fill-opacity:1;fill-rule:evenodd;stroke-width:0.26452"
       d="m 45.18,-522.2 a 48.7,49.55 36.12 0 0 -68.39,11.3 48.7,49.55 36.12 0 0 10,68.7 48.7,49.55 36.12 0 0 68.49,-11.3 48.7,49.55 36.12 0 0 -10.1,-68.7 z m -10.9,14.9 a 35.19,30.93 36.12 0 1 10.1,45.8 35.19,30.93 36.12 0 1 -46.605,4.2 35.19,30.93 36.12 0 1 -10.085,-45.6 35.19,30.93 36.12 0 1 46.59,-4.4 z" />
    <path
       id="path144997-6-1"
       style="fill:#8b0000;fill-opacity:1;fill-rule:evenodd;stroke-width:0.264512"
       d="m 58.38,-517.2 a 57.92,54.98 50.48 0 0 -79.18,-9.8 57.92,54.98 50.48 0 0 -5.65,79.7 57.92,54.98 50.48 0 0 79.43,9.9 57.92,54.98 50.48 0 0 5.4,-79.8 z m -11.6,9.4 a 43.88,39.96 50.48 0 1 -2.9,59.3 43.88,39.96 50.48 0 1 -58.64,-8.4 43.88,39.96 50.48 0 1 2.9,-59.2 43.88,39.96 50.48 0 1 58.64,8.3 z" />
    <path
       id="path144997-6"
       style="fill:#8b0000;fill-opacity:1;fill-rule:evenodd;stroke-width:0.264554"
       d="m 78.28,-533.6 a 85.15,80.82 50.48 0 0 -116.41,-14.3 85.15,80.82 50.48 0 0 -8.3,117 85.15,80.82 50.48 0 0 116.71,14.5 85.15,80.82 50.48 0 0 8,-117.2 z m -17,13.9 a 64.51,58.75 50.48 0 1 -4.4,87.1 64.51,58.75 50.48 0 1 -86.11,-12.4 64.51,58.75 50.48 0 1 4.3,-86.9 64.51,58.75 50.48 0 1 86.21,12.2 z m -45.6,-20.5 a 60.57,56.86 0 0 0 -60.38,56.7 60.57,56.86 0 0 0 60.38,56.8 60.57,56.86 0 0 0 60.6,-56.8 60.57,56.86 0 0 0 -60.6,-56.7 z m 3.1,6.9 a 46.86,50.38 20.35 0 1 14.5,2.7 46.86,50.38 20.35 0 1 26.5,63.4 46.86,50.38 20.35 0 1 -61.605,30.9 46.86,50.38 20.35 0 1 -26.275,-63.5 46.86,50.38 20.35 0 1 46.88,-33.5 z" />
    <path
       id="path141427-8-0"
       style="fill:#ff9494;fill-opacity:1;fill-rule:evenodd;stroke-width:0.264436"
       d="m 92.68,-476.2 a 80.17,76.4 74.43 0 0 -37.2,-73.6 80.17,76.4 74.43 0 0 -105.19,24.7 80.17,76.4 74.43 0 0 26.1,110.4 80.17,76.4 74.43 0 0 105.59,-24.8 80.17,76.4 74.43 0 0 10.7,-36.7 z m -44.8,-5.2 a 32.02,39.83 1.191 0 1 -32.8,38.9 32.02,39.83 1.191 0 1 -31.09,-40.4 32.02,39.83 1.191 0 1 32.89,-39 32.02,39.83 1.191 0 1 31,40.5 z" />
    <path
       id="path144997-1-1"
       style="fill:#cc0000;fill-opacity:1;fill-rule:evenodd;stroke-width:0.264338"
       d="m 15.88,-549.1 a 59.08,66.8 0 0 0 -59.02,66.9 59.08,66.8 0 0 0 59.02,66.9 59.08,66.8 0 0 0 59.3,-66.9 59.08,66.8 0 0 0 -59.3,-66.9 z m 0,18.3 a 44.76,48.57 0 0 1 44.7,48.6 44.76,48.57 0 0 1 -44.7,48.5 44.76,48.57 0 0 1 -44.57,-48.5 44.76,48.57 0 0 1 44.57,-48.6 z m -0.1,-47.3 a 91.47,95.98 0 0 0 -91.36,95.9 91.47,95.98 0 0 0 91.36,96 91.47,95.98 0 0 0 91.92,-96 91.47,95.98 0 0 0 -91.92,-95.9 z m 0,26.3 a 69.31,69.77 0 0 1 69.4,69.6 69.31,69.77 0 0 1 -69.4,70 69.31,69.77 0 0 1 -69.05,-70 69.31,69.77 0 0 1 69.05,-69.6 z" />
    <path
       id="path144997-6-5"
       style="fill:#8b0000;fill-opacity:1;fill-rule:evenodd;stroke-width:0.264531"
       d="m -18.95,-380.3 a 113.5,107.7 19.04 0 0 142.35,-64.8 113.5,107.7 19.04 0 0 -72.02,-138.8 113.5,107.7 19.04 0 0 -142.71,64.7 113.5,107.7 19.04 0 0 72.38,138.9 z m 9.725,-27.8 A 85.98,78.3 19.04 0 1 -64.8,-510 85.98,78.3 19.04 0 1 41.68,-555.9 85.98,78.3 19.04 0 1 97.28,-454 85.98,78.3 19.04 0 1 -9.225,-408.1 Z m 64.905,-9.7 a 75.78,80.73 58.56 0 0 29.3,-106.4 75.78,80.73 58.56 0 0 -108.19,-22.6 75.78,80.73 58.56 0 0 -29.46,106.6 75.78,80.73 58.56 0 0 108.35,22.4 z m -8.4,-5.7 a 67.14,62.46 78.91 0 1 -18.3,7 67.14,62.46 78.91 0 1 -74.06,-53.7 67.14,62.46 78.91 0 1 48.355,-77.8 67.14,62.46 78.91 0 1 74.105,53.8 67.14,62.46 78.91 0 1 -30.1,70.7 z" />
    <path
       id="path144997"
       style="fill:#cc0000;fill-opacity:1;fill-rule:evenodd;stroke-width:0.264467"
       d="m 15.88,-614.1 a 141.5,131.9 0 0 0 -141.48,131.9 141.5,131.9 0 0 0 141.48,132 141.5,131.9 0 0 0 141.82,-132 141.5,131.9 0 0 0 -141.82,-131.9 z m 0,36.3 a 107.2,95.92 0 0 1 107.02,95.6 107.2,95.92 0 0 1 -107.02,96.1 107.2,95.92 0 0 1 -107.06,-96.1 107.2,95.92 0 0 1 107.06,-95.6 z m 0,0 a 98.64,99.82 0 0 0 -98.55,99.5 98.64,99.82 0 0 0 98.55,99.8 98.64,99.82 0 0 0 98.62,-99.8 98.64,99.82 0 0 0 -98.62,-99.5 z m 0,37.2 a 71.26,62.3 0 0 1 71.2,62.3 71.26,62.3 0 0 1 -71.2,62.4 71.26,62.3 0 0 1 -71.15,-62.4 71.26,62.3 0 0 1 71.15,-62.3 z" />
  </g>
</svg>
