<?xml version="1.0" encoding="UTF-8" standalone="no"?>
<!-- Created with Inkscape (http://www.inkscape.org/) -->

<svg
   width="370"
   height="150"
   viewBox="0 0 97.9 39.67"
   version="1.1"
   id="svg1519"
   inkscape:version="1.1.2 (76b9e6a115, 2022-02-25)"
   sodipodi:docname="title.svg"
   xmlns:inkscape="http://www.inkscape.org/namespaces/inkscape"
   xmlns:sodipodi="http://sodipodi.sourceforge.net/DTD/sodipodi-0.dtd"
   xmlns="http://www.w3.org/2000/svg"
   xmlns:svg="http://www.w3.org/2000/svg">
  <sodipodi:namedview
     id="namedview1521"
     pagecolor="#ffffff"
     bordercolor="#111111"
     borderopacity="1"
     inkscape:pageshadow="0"
     inkscape:pageopacity="0"
     inkscape:pagecheckerboard="1"
     inkscape:document-units="px"
     showgrid="false"
     inkscape:snap-global="true"
     inkscape:zoom="1"
     inkscape:cx="289.5"
     inkscape:cy="58.5"
     inkscape:window-width="1920"
     inkscape:window-height="1052"
     inkscape:window-x="0"
     inkscape:window-y="0"
     inkscape:window-maximized="1"
     inkscape:current-layer="layer1"
     units="px"
     lock-margins="true"
     width="370in" />
  <defs
     id="defs1516" />
  <g
     inkscape:label="Layer 1"
     inkscape:groupmode="layer"
     id="layer1">
    <g
       id="projects-title"
       transform="matrix(0.487,0,0,0.487,-34.25,-13.44)"
       stroke-width="1.1"
       aria-label="Projects">
      <path
         id="projects-letter-p"
         d="m 89,88 q 1.5,-6.8 2.9,-13 0.55,-2.7 1.2,-5.8 0.6,-3 1.2,-6 0.56,-2.9 1.1,-5.6 0.51,-2.7 0.86,-5 1.5,-0.45 2.9,-0.75 1.44,-0.35 2.84,-0.61 1.6,-0.25 2.9,-0.25 2.2,0 3.7,0.76 1.6,0.75 2.6,2.1 0.9,1.3 1.3,3 0.4,1.7 0.4,3.7 0,2.8 -1,5.4 -1,2.6 -2.8,4.7 -1.7,2 -4,3.2 -2.2,1.2 -4.6,1.2 h -0.64 q -0.38,1.7 -0.74,3.7 -0.35,2 -0.6,3.7 -0.35,2 -0.66,4 z m 14,-31 q -0.5,3.3 -1.1,6.3 -0.5,3 -1.2,6.4 0.8,-0.2 1.7,-0.91 0.9,-0.76 1.7,-1.9 0.7,-1.2 1.2,-2.8 0.4,-1.6 0.4,-3.3 0,-1.9 -0.8,-2.8 -0.8,-0.9 -1.9,-0.96 z"
         className="projectsLetter" />
      <path
         id="projects-letter-r"
         d="m 109,88 q 1.4,-6.7 2.7,-13 0.4,-2.7 1,-5.6 0.5,-3 1,-5.8 0.5,-2.9 0.9,-5.6 0.4,-2.7 0.7,-4.9 2.9,-0.91 6.2,-1.3 3.3,-0.46 6.6,-0.46 2,0 3.2,0.46 1.3,0.45 2,1.3 0.8,0.81 1.1,1.9 0.3,1.1 0.3,2.5 0,2 -0.7,4 -0.7,1.9 -1.9,3.7 -1.2,1.7 -2.7,3.2 -1.5,1.4 -3.3,2.3 0.9,2 1.9,4.4 1.1,2.4 2,4.5 1,2.5 2,5 l -7.8,2.7 q -1,-3.2 -1.8,-6.1 -0.3,-1.2 -0.7,-2.4 -0.4,-1.3 -0.7,-2.4 -0.3,-1.1 -0.5,-2 -0.2,-0.91 -0.2,-1.5 l -0.7,0.2 q -0.3,1.6 -0.7,3.8 -0.4,2.2 -0.8,4.2 -0.4,2.4 -0.9,4.8 z m 12,-22 q 1,-0.1 2.3,-0.81 1.4,-0.7 2.7,-1.7 1.2,-1 2.2,-2.1 0.9,-1.1 0.9,-1.9 0,-0.56 -0.4,-0.86 -0.3,-0.35 -1,-0.51 -0.6,-0.2 -1.4,-0.25 -0.7,0 -1.5,0 -0.6,0 -1.2,0 -0.5,0 -1,0 z"
         className="projectsLetter" />
      <path
         id="projects-letter-o"
         d="m 159,60 q 0,4.1 -0.9,7.8 -0.9,3.6 -2.4,6.7 -1.4,3 -3.4,5.4 -1.9,2.4 -4,4.1 -2.1,1.7 -4.3,2.6 -2.2,0.85 -4.1,0.85 -1.7,0 -3.1,-0.6 -1.3,-0.66 -2.3,-1.9 -1,-1.3 -1.7,-3.2 -0.5,-2 -0.5,-4.7 0,-2.8 0.7,-6 0.7,-3.1 1.9,-6.2 1.2,-3.1 3,-5.8 1.8,-2.8 3.9,-4.9 2.1,-2.2 4.5,-3.4 2.4,-1.2 5.1,-1.3 2.2,0 3.7,0.95 1.5,0.91 2.3,2.4 0.9,1.5 1.2,3.3 0.4,1.9 0.4,3.7 z m -19,16 q 0,0.55 0.2,1.2 0.2,0.6 0.6,1 0.3,0.46 0.8,0.81 0.6,0.3 1.2,0.3 2.2,0 4,-1.6 1.8,-1.6 2.9,-3.8 1.2,-2.3 1.8,-4.8 0.7,-2.6 0.7,-4.7 0,-0.61 -0.1,-1.3 -0.1,-0.71 -0.3,-1.3 -0.2,-0.61 -0.8,-1 -0.4,-0.45 -1.2,-0.45 -1.6,0 -3,0.8 -1.3,0.81 -2.5,2.2 -1,1.3 -1.8,3 -0.8,1.7 -1.4,3.4 -0.6,1.7 -0.8,3.4 -0.3,1.7 -0.3,2.9 z"
         className="projectsLetter" />
      <path
         id="projects-letter-j"
         d="m 170,74 q -0.4,2.2 -1.1,4.6 -0.7,2.4 -1.8,4.3 -1,1.9 -2.6,3.2 -1.5,1.3 -3.6,1.3 -1.4,0 -3.1,-0.6 -1.6,-0.61 -3.6,-2.1 l 3.5,-7.8 q 0.3,0.5 1,0.9 0.7,0.36 1.6,0.36 0.6,0 1,-1 0.5,-1 0.9,-2.3 0.3,-1.4 0.5,-2.8 0.2,-1.4 0.3,-2.3 1,-4.9 1.9,-9.7 0.8,-4.9 2,-9.7 2.3,-0.2 4.4,-0.6 2.2,-0.46 4.5,-1.1 -0.8,2.6 -1.6,5.8 -0.8,3.2 -1.6,6.7 -0.7,3.4 -1.4,6.8 -0.7,3.3 -1.2,5.9 z"
         className="projectsLetter" />
      <path
         id="projects-letter-e"
         d="m 170,88 6.6,-36 16,-1.4 q -0.4,1.1 -0.6,2.3 -0.3,0.96 -0.5,2 -0.2,1 -0.4,1.8 -0.5,0.1 -1.4,0.1 -0.9,0 -2,0 -1.1,0 -2.2,0 -1,0 -1.8,0 l -1.8,9 q 1.6,-0.1 2.9,-0.15 1.1,0 2.3,0 1.2,0 1.7,0 -0.2,1.4 -0.4,2.8 -0.1,1.4 -0.4,2.8 -0.5,0 -1.7,0.1 -1.1,0 -2.2,0 -1.3,0.1 -2.9,0.11 l -1.7,9.3 7.3,-1.2 -0.5,5.8 z"
         className="projectsLetter" />
      <path
         id="projects-letter-c"
         d="m 209,77 q -1.2,2.8 -2.7,4.8 -1.5,2 -3.2,3.4 -1.6,1.4 -3.2,2 -1.7,0.65 -3.3,0.65 -1.5,0 -2.8,-0.7 -1.3,-0.71 -2.3,-2.1 -0.9,-1.4 -1.5,-3.5 -0.6,-2.1 -0.6,-4.8 0,-4.7 1.3,-9.3 1.3,-4.6 3.7,-8.3 2.4,-3.7 5.6,-5.9 3.3,-2.3 7.2,-2.3 1.2,0 2.3,0.51 1.1,0.5 1.9,1.4 0.9,0.91 1.3,2.2 0.5,1.3 0.5,2.9 0,0.31 0,0.66 0,0.3 0,0.65 l -6.6,1.8 q -0.6,-1.3 -1.5,-1.3 -0.8,0 -1.7,0.96 -0.8,0.9 -1.7,2.4 -0.8,1.5 -1.6,3.3 -0.9,1.8 -1.5,3.7 -0.6,1.9 -1,3.6 -0.3,1.7 -0.3,2.7 0,1.6 0.4,2.3 0.4,0.65 1.1,0.65 0.6,0 1.3,-0.4 0.7,-0.46 1.3,-1.1 0.6,-0.71 1.1,-1.6 0.5,-0.86 0.7,-1.7 z"
         className="projectsLetter" />
      <path
         id="projects-letter-t"
         d="m 213,88 q 1.1,-5.5 2.2,-11 0.4,-2.3 0.9,-4.7 0.4,-2.5 0.8,-4.8 0.5,-2.4 0.8,-4.6 0.4,-2.3 0.6,-4.1 -1.2,-0.15 -2.4,-0.1 -1.1,0.1 -2.3,-0.31 0.1,-0.8 0.1,-1.9 0,-1.1 0,-2.1 0.1,-1.2 0.1,-2.5 1.3,0.1 2.6,0.15 1.4,0.1 2.7,0.1 2.5,0 4.9,-0.1 2.4,-0.15 4.4,-0.3 2.1,-0.2 4.1,-0.46 l -0.6,2.7 q -0.2,1.2 -0.5,2.4 -0.2,1.2 -0.4,2.1 -1.1,0.31 -2.3,0.46 -1.1,0.1 -2.2,0.3 -0.3,1.7 -0.7,3.8 -0.4,2.1 -0.8,4.3 -0.4,2.2 -0.7,4.5 -0.4,2.3 -0.7,4.4 -0.9,5 -1.6,10 z"
         className="projectsLetter" />
      <path
         id="projects-letter-s"
         d="m 249,75 q 0,2.8 -1.1,5.1 -1.1,2.3 -2.9,3.9 -1.8,1.7 -4.4,2.6 -2.4,0.9 -5.3,0.9 -2,0 -4,-1.1 -2.1,-1.1 -3.9,-3.5 l 3.7,-7.3 q 0.4,0.66 1.1,1.4 0.7,0.65 1.5,1.2 0.9,0.51 1.8,0.86 0.9,0.3 1.6,0.3 0.6,0 1.3,-0.2 0.6,-0.2 1.2,-0.6 0.5,-0.41 0.8,-0.91 0.4,-0.55 0.4,-1.3 0,-1.2 -0.8,-2.2 -0.8,-1.1 -1.9,-2 -1.2,-0.95 -2.5,-1.9 -1.4,-0.96 -2.6,-2 -1.1,-1.1 -1.9,-2.4 -0.8,-1.3 -0.8,-2.9 0,-2.6 1.6,-4.9 1.5,-2.3 3.9,-3.9 2.3,-1.7 5.1,-2.6 2.8,-0.9 5.2,-0.96 1.4,0 2.6,0.36 1.2,0.3 2.1,1.1 0.9,0.7 1.4,1.8 0.5,1.1 0.5,2.8 0,0.71 -0.1,1.4 -0.1,0.7 -0.2,1.5 l -7.3,2.1 q 0.1,-0.41 0.1,-0.81 0.1,-0.4 0.1,-0.81 0,-1.5 -0.5,-2.2 -0.5,-0.7 -1.4,-0.7 -0.4,0 -1,0.3 -0.5,0.3 -1.2,0.81 -0.5,0.45 -0.9,1.1 -0.4,0.65 -0.4,1.4 0,1.2 0.6,2 0.7,0.8 1.8,1.5 1,0.7 2.1,1.5 1.2,0.71 2.2,1.9 1.1,1.2 1.7,2.9 0.7,1.7 0.7,4.4 z"
         className="projectsLetter" />
    </g>
    <g
       id="thedojo-link"
       transform="matrix(0.7614,0,0,0.7614,-105.1,-16.51)"
       stroke-width="0.78"
       aria-label="the DOJO">
      <path
         id="thedojo-letter-t"
         d="m 148,119 q 0.8,-3.8 1.5,-7.5 0.3,-1.6 0.6,-3.3 0.3,-1.7 0.6,-3.3 0.3,-1.7 0.5,-3.2 0.3,-1.6 0.4,-2.9 -0.8,-0.1 -1.6,-0.1 -0.8,0 -1.6,-0.21 0,-0.55 0,-1.3 0,-0.75 0.1,-1.5 0,-0.8 0,-1.7 1,0.1 1.9,0.11 0.9,0 1.8,0 1.7,0 3.4,-0.1 1.6,-0.1 3,-0.21 1.5,-0.14 2.8,-0.31 l -0.4,1.9 q -0.1,0.8 -0.3,1.6 -0.2,0.84 -0.3,1.4 -0.8,0.21 -1.6,0.31 -0.7,0.1 -1.5,0.21 -0.2,1.2 -0.5,2.7 -0.3,1.4 -0.6,3 -0.2,1.5 -0.5,3.1 -0.2,1.6 -0.4,3 -0.6,3.5 -1.1,7.2 z" />
      <path
         id="thedojo-letter-h"
         d="m 158,120 q 1,-4.9 1.9,-9.5 0.3,-2 0.7,-4.1 0.4,-2.2 0.7,-4.3 0.3,-2 0.6,-4 0.3,-2 0.5,-3.6 0.8,0 1.5,0.1 0.7,0 1.3,0.1 0.7,0 1.3,0.1 0.7,0 1.5,0 -0.6,2.5 -1.1,4.9 -0.6,2.5 -1.1,5 l 3.5,-0.4 q 0.4,-2.5 0.8,-4.8 0.4,-2.3 1,-4.8 0.8,-0.14 1.8,-0.2 1,-0.11 1.8,-0.18 0.8,-0.1 1.4,-0.1 0.6,-0.1 0.6,-0.1 -0.5,1.6 -0.9,3.4 -0.5,1.8 -0.9,3.78 -0.4,2 -0.8,4 -0.4,2.1 -0.7,3.9 -0.7,4.4 -1.4,9 l -5.4,0.7 q 0.4,-2.1 0.8,-4.1 0.3,-1.7 0.7,-3.5 0.4,-1.8 0.6,-3.1 l -3.4,0.3 q -0.3,1.4 -0.6,3.1 -0.3,1.7 -0.6,3.3 -0.4,1.9 -0.8,3.8 z" />
      <path
         id="thedojo-letter-e"
         d="m 174,119 4.6,-25 11,-0.94 q -0.3,0.77 -0.5,1.6 -0.1,0.66 -0.3,1.4 -0.1,0.69 -0.2,1.2 -0.4,0 -1.1,0.1 -0.6,0 -1.3,0 -0.7,0 -1.5,0 -0.7,0 -1.3,0 l -1.2,6.24 q 1.1,-0.1 2,-0.1 0.8,0 1.6,0 0.8,0 1.2,-0.1 -0.2,1 -0.3,2 -0.1,0.9 -0.3,1.9 -0.3,0 -1.1,0 -0.8,0 -1.6,0.1 -0.9,0 -2,0 l -1.2,6.4 5.1,-0.8 -0.3,4 z" />
      <path
         id="thedojo-letter-d"
         d="m 210,102 q 0,1.8 -0.5,3.9 -0.6,2 -1.5,4 -0.9,2 -2.3,3.9 -1.4,1.8 -3.1,3.2 -1.8,1.3 -3.9,2.1 -2,0.9 -4.3,0.9 -0.5,0 -1,-0.1 -0.5,0 -1,-0.1 1,-4.8 1.9,-9.3 0.3,-2 0.7,-4 0.4,-2.1 0.7,-4.1 0.4,-2 0.7,-3.9 0.3,-1.9 0.5,-3.3 1.5,-0.28 3.1,-0.52 1.5,-0.24 3.1,-0.24 1.9,0 3.2,0.59 1.3,0.59 2.1,1.6 0.8,1.01 1.2,2.4 0.4,1.37 0.4,2.87 z m -8.2,-2.7 q -0.4,2.1 -0.8,4 -0.4,1.8 -0.9,3.7 -0.4,2 -0.8,4 -0.4,2.1 -0.8,4.6 0.8,-0.6 1.6,-1.5 0.8,-1 1.5,-2.2 0.7,-1.3 1.3,-2.7 0.5,-1.4 1,-2.7 0.4,-1.3 0.6,-2.4 0.2,-1.2 0.2,-2 0,-1.3 -0.7,-2 -0.7,-0.73 -2.2,-0.73 z" />
      <path
         id="thedojo-letter-o"
         d="m 227,101 q 0,2.8 -0.6,5.4 -0.6,2.5 -1.6,4.6 -1,2.1 -2.4,3.8 -1.3,1.6 -2.8,2.8 -1.4,1.1 -2.9,1.8 -1.5,0.5 -2.9,0.5 -1.1,0 -2.1,-0.4 -0.9,-0.4 -1.6,-1.3 -0.7,-0.8 -1.1,-2.1 -0.4,-1.4 -0.4,-3.3 0,-1.9 0.5,-4.1 0.5,-2.1 1.3,-4.3 0.8,-2.1 2.1,-4 1.2,-1.9 2.6,-3.4 1.5,-1.5 3.2,-2.4 1.6,-0.87 3.4,-0.87 1.6,0 2.6,0.66 1.1,0.63 1.6,1.7 0.6,1 0.8,2.3 0.3,1.3 0.3,2.61 z m -13,11 q 0,0.4 0.1,0.8 0.2,0.4 0.4,0.7 0.2,0.4 0.6,0.6 0.4,0.2 0.8,0.2 1.5,0 2.8,-1.1 1.2,-1 2,-2.6 0.8,-1.6 1.2,-3.3 0.5,-1.8 0.5,-3.3 0,-0.4 -0.1,-0.9 -0.1,-0.5 -0.2,-0.9 -0.2,-0.4 -0.5,-0.7 -0.3,-0.3 -0.9,-0.3 -1.1,0 -2,0.6 -1,0.5 -1.7,1.5 -0.8,0.9 -1.3,2 -0.6,1.2 -1,2.4 -0.4,1.2 -0.6,2.3 -0.1,1.2 -0.1,2 z" />
      <path
         id="thedojo-letter-j"
         d="m 233,110 q -0.3,1.5 -0.7,3.2 -0.5,1.6 -1.3,2.9 -0.7,1.4 -1.8,2.3 -1,0.8 -2.5,0.8 -0.9,0 -2.1,-0.4 -1.1,-0.4 -2.5,-1.4 l 2.4,-5.4 q 0.2,0.4 0.7,0.7 0.5,0.2 1.1,0.2 0.4,0 0.7,-0.7 0.4,-0.7 0.6,-1.6 0.3,-0.9 0.4,-1.9 0.1,-1 0.2,-1.6 0.7,-3.3 1.3,-6.7 0.6,-3.3 1.4,-6.7 1.5,-0.14 3,-0.42 1.6,-0.31 3.1,-0.73 -0.5,1.8 -1.1,4 -0.6,2.2 -1.1,4.55 -0.5,2.4 -1,4.7 -0.4,2.3 -0.8,4.1 z" />
      <path
         d="m 252,101 q 0,2.8 -0.6,5.4 -0.6,2.5 -1.6,4.6 -1,2.1 -2.3,3.8 -1.4,1.6 -2.8,2.8 -1.5,1.1 -3,1.8 -1.5,0.5 -2.8,0.5 -1.2,0 -2.1,-0.4 -1,-0.4 -1.7,-1.3 -0.6,-0.8 -1.1,-2.1 -0.3,-1.4 -0.3,-3.3 0,-1.9 0.4,-4.1 0.5,-2.1 1.4,-4.3 0.8,-2.1 2,-4 1.2,-1.9 2.7,-3.4 1.4,-1.5 3.1,-2.4 1.7,-0.9 3.5,-0.87 1.6,0 2.6,0.66 1,0.63 1.6,1.7 0.6,1 0.8,2.3 0.2,1.3 0.2,2.61 z m -13,11 q 0,0.4 0.2,0.8 0.1,0.4 0.4,0.7 0.2,0.4 0.5,0.6 0.4,0.2 0.8,0.2 1.6,0 2.8,-1.1 1.2,-1 2,-2.6 0.8,-1.6 1.3,-3.3 0.4,-1.8 0.4,-3.3 0,-0.4 -0.1,-0.9 0,-0.5 -0.2,-0.9 -0.1,-0.4 -0.5,-0.7 -0.3,-0.3 -0.8,-0.3 -1.1,0 -2.1,0.6 -0.9,0.5 -1.7,1.5 -0.7,0.9 -1.3,2 -0.5,1.2 -0.9,2.4 -0.4,1.2 -0.6,2.3 -0.2,1.2 -0.2,2 z"
         id="path839" />
    </g>
    <g
       id="aboutme-link"
       transform="matrix(1.079,0,0,1.079,-165.4,-25.91)"
       stroke-width="0.62"
       aria-label="about me">
      <path
         id="aboutme-letter-a"
         d="m 178,144 q -0.9,0 -1.5,-0.6 -0.6,-0.6 -0.6,-1.4 v -4.2 q 0,-0.8 0.6,-1.4 0.6,-0.6 1.5,-0.6 h 2.1 q 0.5,0 0.7,-0.3 0.3,-0.3 0.3,-0.7 v -1 q 0,-0.4 -0.3,-0.7 -0.2,-0.3 -0.7,-0.3 h -3 l 0.6,-2.6 h 4 q 0.9,0 1.4,0.6 0.6,0.6 0.6,1.4 v 12 z m 1.5,-2.6 h 1.6 v -3 h -1.6 q -0.4,0 -0.7,0.3 -0.3,0.3 -0.3,0.7 v 1 q 0,0.4 0.3,0.7 0.3,0.3 0.7,0.3 z" />
      <path
         id="aboutme-letter-b"
         d="m 185,144 v -20 l 2.6,-0.6 v 6.9 h 3.2 q 0.8,0 1.4,0.6 0.6,0.5 0.6,1.4 v 9.8 q 0,0.8 -0.6,1.4 -0.6,0.6 -1.4,0.6 z m 2.6,-2.6 h 1.6 q 0.4,0 0.7,-0.3 0.3,-0.3 0.3,-0.7 v -6.6 q 0,-0.4 -0.3,-0.7 -0.3,-0.3 -0.7,-0.3 h -1.6 z" />
      <path
         id="aboutme-letter-o"
         d="m 197,144 q -0.8,0 -1.4,-0.6 -0.6,-0.6 -0.6,-1.4 v -9.8 q 0,-0.8 0.6,-1.4 0.6,-0.6 1.4,-0.6 h 3.8 q 0.8,0 1.4,0.6 0.6,0.6 0.6,1.4 v 9.8 q 0,0.8 -0.6,1.4 -0.6,0.6 -1.4,0.6 z m 1.6,-2.6 h 0.6 q 0.4,0 0.7,-0.3 0.3,-0.3 0.3,-0.7 v -6.6 q 0,-0.4 -0.3,-0.7 -0.3,-0.3 -0.7,-0.3 h -0.6 q -0.4,0 -0.7,0.3 -0.3,0.3 -0.3,0.7 v 6.6 q 0,0.4 0.3,0.7 0.3,0.3 0.7,0.3 z" />
      <path
         id="aboutme-letter-u"
         d="m 206,144 q -0.8,0 -1.4,-0.6 -0.6,-0.6 -0.6,-1.4 v -12 h 2.6 v 10 q 0,0.4 0.3,0.7 0.3,0.3 0.7,0.3 h 1.6 v -11 h 2.6 v 14 z" />
      <path
         id="aboutme-letter-t"
         d="m 214,144 v -20 l 2.6,-0.6 v 6.9 h 3.3 l -0.7,2.6 h -2.6 v 11 z" />
      <path
         id="aboutme-letter-m"
         d="m 226,144 v -14 h 11 q 0.9,0 1.4,0.6 0.6,0.6 0.6,1.4 v 12 h -2.6 v -10 q 0,-0.4 -0.3,-0.7 -0.3,-0.3 -0.7,-0.3 h -1.6 v 11 h -2.6 v -10 q 0,-0.4 -0.3,-0.7 -0.3,-0.3 -0.7,-0.3 h -1.6 v 11 z" />
      <path
         id="aboutme-letter-e"
         d="m 243,144 q -0.8,0 -1.4,-0.6 -0.6,-0.6 -0.6,-1.4 v -9.8 q 0,-0.9 0.6,-1.4 0.6,-0.6 1.4,-0.6 h 3.8 q 0.8,0 1.4,0.6 0.6,0.5 0.6,1.4 v 4.2 q 0,0.8 -0.6,1.4 -0.6,0.6 -1.4,0.6 h -3.2 v 2 q 0,0.4 0.3,0.7 0.3,0.3 0.7,0.3 h 3.6 l 0.6,2.6 z m 0.6,-8.2 h 1.6 q 0.4,0 0.7,-0.3 0.3,-0.3 0.3,-0.7 v -1 q 0,-0.4 -0.3,-0.7 -0.3,-0.3 -0.7,-0.3 h -0.6 q -0.4,0 -0.7,0.3 -0.3,0.3 -0.3,0.7 z" />
    </g>
    <text
       xml:space="preserve"
       style="font-size:11.7989px;line-height:1.25;font-family:Amatic;-inkscape-font-specification:'Amatic, Normal';letter-spacing:0px;word-spacing:0px;stroke-width:0.2646"
       x="150.5"
       y="77.57"
       id="text3515"><tspan
         sodipodi:role="line"
         id="tspan3513"
         style="stroke-width:0.2646"
         x="150.5"
         y="77.57">fff</tspan></text>
  </g>
</svg>
